999
dxfrw 0.5.10
0
SECTION
2
HEADER
9
$ACADVER
1
AC1021
9
$HANDSEED
5
20000
9
$DWGCODEPAGE
3
ANSI_1252
9
$INSBASE
10
0
20
0
30
0
9
$EXTMIN
10
0
20
0
30
0
9
$EXTMAX
10
180
20
180
30
0
9
$LIMMIN
10
0
20
0
9
$LIMMAX
10
420
20
297
9
$ORTHOMODE
70
0
9
$LTSCALE
40
1
9
$TEXTSTYLE
7
STANDARD
9
$CLAYER
8
0
9
$DIMASZ
40
2.5
9
$DIMLFAC
40
1
9
$DIMSCALE
40
1
9
$DIMEXO
40
0.625
9
$DIMEXE
40
1.25
9
$DIMTXT
40
2.5
9
$DIMTSZ
40
0
9
$DIMAUNIT
70
0
9
$DIMADEC
70
2
9
$DIMLUNIT
70
2
9
$DIMSTYLE
2
STANDARD
9
$DIMGAP
40
0.625
9
$DIMTIH
70
0
9
$LUNITS
70
2
9
$LUPREC
70
4
9
$AUNITS
70
0
9
$AUPREC
70
2
9
$SPLINESEGS
70
8
9
$GRIDMODE
70
0
9
$SNAPSTYLE
70
0
9
$GRIDUNIT
10
0
20
0
9
$PINSBASE
10
0
20
0
30
0
9
$PLIMMIN
10
0
20
0
9
$PLIMMAX
10
1189
20
841
9
$INSUNITS
70
4
9
$PSVPSCALE
40
1
0
ENDSEC
0
SECTION
2
CLASSES
0
ENDSEC
0
SECTION
2
TABLES
0
TABLE
2
VPORT
5
8
330
0
100
AcDbSymbolTable
70
1
0
VPORT
5
31
330
2
100
AcDbSymbolTableRecord
100
AcDbViewportTableRecord
2
*ACTIVE
70
0
10
0
20
0
11
1
21
1
12
135.15625
22
92.03125
13
0
23
0
14
10
24
10
15
10
25
10
16
0
26
0
36
1
17
0
27
0
37
0
40
236.875
41
1.6253298153
42
50
43
0
44
0
50
0
51
0
71
0
72
100
73
1
74
3
75
0
76
0
77
0
78
0
281
0
65
1
110
0
120
0
130
0
111
1
121
0
131
0
112
0
122
1
132
0
79
0
146
0
348
10020
60
7
61
5
292
1
282
1
141
0
142
0
63
250
421
3358443
0
ENDTAB
0
TABLE
2
LTYPE
5
5
330
0
100
AcDbSymbolTable
70
4
0
LTYPE
5
14
330
5
100
AcDbSymbolTableRecord
100
AcDbLinetypeTableRecord
2
ByBlock
70
0
3

72
65
73
0
40
0
0
LTYPE
5
15
330
5
100
AcDbSymbolTableRecord
100
AcDbLinetypeTableRecord
2
ByLayer
70
0
3

72
65
73
0
40
0
0
LTYPE
5
16
330
5
100
AcDbSymbolTableRecord
100
AcDbLinetypeTableRecord
2
Continuous
70
0
3
Solid line
72
65
73
0
40
0
0
LTYPE
5
32
330
5
100
AcDbSymbolTableRecord
100
AcDbLinetypeTableRecord
2
DOT
70
0
3
Dot . . . . . . . . . . . . . . . . . . . . . .
72
65
73
2
40
6.35
49
0
74
0
49
-6.35
74
0
0
LTYPE
5
33
330
5
100
AcDbSymbolTableRecord
100
AcDbLinetypeTableRecord
2
DOT2
70
0
3
Dot (.5x) .....................................
72
65
73
2
40
3.175
49
0
74
0
49
-3.175
74
0
0
LTYPE
5
34
330
5
100
AcDbSymbolTableRecord
100
AcDbLinetypeTableRecord
2
DOTX2
70
0
3
Dot (2x) .  .  .  .  .  .  .  .  .  .  .  .  .
72
65
73
2
40
12.7
49
0
74
0
49
-12.7
74
0
0
LTYPE
5
35
330
5
100
AcDbSymbolTableRecord
100
AcDbLinetypeTableRecord
2
DASHED
70
0
3
Dot . . . . . . . . . . . . . . . . . . . . . .
72
65
73
2
40
19.05
49
12.7
74
0
49
-6.35
74
0
0
LTYPE
5
36
330
5
100
AcDbSymbolTableRecord
100
AcDbLinetypeTableRecord
2
DASHED2
70
0
3
Dashed (.5x) _ _ _ _ _ _ _ _ _ _ _ _ _ _ _ _ _
72
65
73
2
40
9.525
49
6.35
74
0
49
-3.175
74
0
0
LTYPE
5
37
330
5
100
AcDbSymbolTableRecord
100
AcDbLinetypeTableRecord
2
DASHEDX2
70
0
3
Dashed (2x) ____  ____  ____  ____  ____  ___
72
65
73
2
40
38.1
49
25.4
74
0
49
-12.7
74
0
0
LTYPE
5
38
330
5
100
AcDbSymbolTableRecord
100
AcDbLinetypeTableRecord
2
DASHDOT
70
0
3
Dash dot __ . __ . __ . __ . __ . __ . __ . __
72
65
73
4
40
25.4
49
12.7
74
0
49
-6.35
74
0
49
0
74
0
49
-6.35
74
0
0
LTYPE
5
39
330
5
100
AcDbSymbolTableRecord
100
AcDbLinetypeTableRecord
2
DASHDOT2
70
0
3
Dash dot (.5x) _._._._._._._._._._._._._._._.
72
65
73
4
40
12.7
49
6.35
74
0
49
-3.175
74
0
49
0
74
0
49
-3.175
74
0
0
LTYPE
5
3A
330
5
100
AcDbSymbolTableRecord
100
AcDbLinetypeTableRecord
2
DASHDOTX2
70
0
3
Dash dot (2x) ____  .  ____  .  ____  .  ___
72
65
73
4
40
50.8
49
25.4
74
0
49
-12.7
74
0
49
0
74
0
49
-12.7
74
0
0
LTYPE
5
3B
330
5
100
AcDbSymbolTableRecord
100
AcDbLinetypeTableRecord
2
DIVIDE
70
0
3
Divide ____ . . ____ . . ____ . . ____ . . ____
72
65
73
6
40
31.75
49
12.7
74
0
49
-6.35
74
0
49
0
74
0
49
-6.35
74
0
49
0
74
0
49
-6.35
74
0
0
LTYPE
5
3C
330
5
100
AcDbSymbolTableRecord
100
AcDbLinetypeTableRecord
2
DIVIDE2
70
0
3
Divide (.5x) __..__..__..__..__..__..__..__.._
72
65
73
6
40
15.875
49
6.35
74
0
49
-3.175
74
0
49
0
74
0
49
-3.175
74
0
49
0
74
0
49
-3.175
74
0
0
LTYPE
5
3D
330
5
100
AcDbSymbolTableRecord
100
AcDbLinetypeTableRecord
2
DIVIDEX2
70
0
3
Divide (2x) ________  .  .  ________  .  .  _
72
65
73
6
40
63.5
49
25.4
74
0
49
-12.7
74
0
49
0
74
0
49
-12.7
74
0
49
0
74
0
49
-12.7
74
0
0
LTYPE
5
3E
330
5
100
AcDbSymbolTableRecord
100
AcDbLinetypeTableRecord
2
BORDER
70
0
3
Border __ __ . __ __ . __ __ . __ __ . __ __ .
72
65
73
6
40
44.45
49
12.7
74
0
49
-6.35
74
0
49
12.7
74
0
49
-6.35
74
0
49
0
74
0
49
-6.35
74
0
0
LTYPE
5
3F
330
5
100
AcDbSymbolTableRecord
100
AcDbLinetypeTableRecord
2
BORDER2
70
0
3
Border (.5x) __.__.__.__.__.__.__.__.__.__.__.
72
65
73
6
40
22.225
49
6.35
74
0
49
-3.175
74
0
49
6.35
74
0
49
-3.175
74
0
49
0
74
0
49
-3.175
74
0
0
LTYPE
5
40
330
5
100
AcDbSymbolTableRecord
100
AcDbLinetypeTableRecord
2
BORDERX2
70
0
3
Border (2x) ____  ____  .  ____  ____  .  ___
72
65
73
6
40
88.9
49
25.4
74
0
49
-12.7
74
0
49
25.4
74
0
49
-12.7
74
0
49
0
74
0
49
-12.7
74
0
0
LTYPE
5
41
330
5
100
AcDbSymbolTableRecord
100
AcDbLinetypeTableRecord
2
CENTER
70
0
3
Center ____ _ ____ _ ____ _ ____ _ ____ _ ____
72
65
73
4
40
50.8
49
31.75
74
0
49
-6.35
74
0
49
6.35
74
0
49
-6.35
74
0
0
LTYPE
5
42
330
5
100
AcDbSymbolTableRecord
100
AcDbLinetypeTableRecord
2
CENTER2
70
0
3
Center (.5x) ___ _ ___ _ ___ _ ___ _ ___ _ ___
72
65
73
4
40
28.575
49
19.05
74
0
49
-3.175
74
0
49
3.175
74
0
49
-3.175
74
0
0
LTYPE
5
43
330
5
100
AcDbSymbolTableRecord
100
AcDbLinetypeTableRecord
2
CENTERX2
70
0
3
Center (2x) ________  __  ________  __  _____
72
65
73
4
40
101.6
49
63.5
74
0
49
-12.7
74
0
49
12.7
74
0
49
-12.7
74
0
0
ENDTAB
0
TABLE
2
LAYER
5
2
330
0
100
AcDbSymbolTable
70
1
0
LAYER
5
10
330
2
100
AcDbSymbolTableRecord
100
AcDbLayerTableRecord
2
0
70
1
62
7
6
CONTINUOUS
370
0
390
F
0
LAYER
5
44
330
2
100
AcDbSymbolTableRecord
100
AcDbLayerTableRecord
2
traces
70
4
62
7
6
CONTINUOUS
370
0
390
F
0
LAYER
5
45
330
2
100
AcDbSymbolTableRecord
100
AcDbLayerTableRecord
2
reverseplate
70
5
62
7
6
CONTINUOUS
370
0
390
F
0
LAYER
5
46
330
2
100
AcDbSymbolTableRecord
100
AcDbLayerTableRecord
2
reverseplate-withoutholes
70
5
62
7
6
CONTINUOUS
370
0
390
F
0
ENDTAB
0
TABLE
2
STYLE
5
3
330
0
100
AcDbSymbolTable
70
3
0
STYLE
5
47
330
2
100
AcDbSymbolTableRecord
100
AcDbTextStyleTableRecord
2
standard
70
0
40
0
41
1
50
0
71
0
42
1
3
standard
4

0
ENDTAB
0
TABLE
2
VIEW
5
6
330
0
100
AcDbSymbolTable
70
0
0
ENDTAB
0
TABLE
2
UCS
5
7
330
0
100
AcDbSymbolTable
70
0
0
ENDTAB
0
TABLE
2
APPID
5
9
330
0
100
AcDbSymbolTable
70
1
0
APPID
5
12
330
9
100
AcDbSymbolTableRecord
100
AcDbRegAppTableRecord
2
ACAD
70
0
0
ENDTAB
0
TABLE
2
DIMSTYLE
5
A
330
0
100
AcDbSymbolTable
70
1
100
AcDbDimStyleTable
71
1
0
DIMSTYLE
105
48
330
A
100
AcDbSymbolTableRecord
100
AcDbDimStyleTableRecord
2
Standard
70
0
40
1
41
2.5
42
0.625
43
0.38
44
1.25
45
0
46
0
47
0
48
0
140
2.5
141
0.09
142
0
143
25.4
144
1
145
0
146
1
147
0.625
148
0
71
0
72
0
73
0
74
1
75
0
76
0
77
0
78
0
79
0
170
0
171
2
172
0
173
0
174
0
175
0
176
0
177
0
178
0
179
0
271
4
272
4
273
2
274
2
275
0
276
0
277
2
278
46
279
0
280
0
281
0
282
0
283
1
284
0
285
0
286
0
288
0
289
3
340
Standard
341

371
-2
372
-2
0
ENDTAB
0
TABLE
2
BLOCK_RECORD
5
1
330
0
100
AcDbSymbolTable
70
2
0
BLOCK_RECORD
5
1F
330
1
100
AcDbSymbolTableRecord
100
AcDbBlockTableRecord
2
*Model_Space
70
0
280
1
281
0
0
BLOCK_RECORD
5
1E
330
1
100
AcDbSymbolTableRecord
100
AcDbBlockTableRecord
2
*Paper_Space
70
0
280
1
281
0
0
ENDTAB
0
ENDSEC
0
SECTION
2
BLOCKS
0
BLOCK
5
20
330
1F
100
AcDbEntity
8
0
100
AcDbBlockBegin
2
*Model_Space
70
0
10
0
20
0
30
0
3
*Model_Space
1

0
ENDBLK
5
21
330
1F
100
AcDbEntity
8
0
100
AcDbBlockEnd
0
BLOCK
5
1C
330
1B
100
AcDbEntity
8
0
100
AcDbBlockBegin
2
*Paper_Space
70
0
10
0
20
0
30
0
3
*Paper_Space
1

0
ENDBLK
5
1D
330
1F
100
AcDbEntity
8
0
100
AcDbBlockEnd
0
ENDSEC
0
SECTION
2
ENTITIES
0
LINE
5
49
100
AcDbEntity
8
0
6
ByLayer
62
256
370
-1
100
AcDbLine
10
0
20
0
11
0
21
180
0
LINE
5
4A
100
AcDbEntity
8
0
6
ByLayer
62
256
370
-1
100
AcDbLine
10
0
20
180
11
180
21
180
0
LINE
5
4B
100
AcDbEntity
8
0
6
ByLayer
62
256
370
-1
100
AcDbLine
10
180
20
180
11
180
21
0
0
LINE
5
4C
100
AcDbEntity
8
0
6
ByLayer
62
256
370
-1
100
AcDbLine
10
180
20
0
11
0
21
0
0
ARC
5
4D
100
AcDbEntity
8
traces
6
ByLayer
62
256
370
-1
100
AcDbCircle
10
18
20
162
40
7
100
AcDbArc
50
286.601549599
51
343.398450401
0
ARC
5
4E
100
AcDbEntity
8
traces
6
ByLayer
62
256
370
-1
100
AcDbCircle
10
18
20
162
40
7
100
AcDbArc
50
16.601549599
51
253.398450401
0
ARC
5
4F
100
AcDbEntity
8
traces
6
ByLayer
62
256
370
-1
100
AcDbCircle
10
18
20
90
40
7
100
AcDbArc
50
106.601549599
51
253.398450401
0
ARC
5
50
100
AcDbEntity
8
traces
6
ByLayer
62
256
370
-1
100
AcDbCircle
10
18
20
90
40
7
100
AcDbArc
50
286.601549599
51
343.398450401
0
ARC
5
51
100
AcDbEntity
8
traces
6
ByLayer
62
256
370
-1
100
AcDbCircle
10
18
20
90
40
7
100
AcDbArc
50
16.601549599
51
73.398450401
0
LINE
5
52
100
AcDbEntity
8
traces
6
ByLayer
62
256
370
-1
100
AcDbLine
10
20
20
96.7082039325
11
20
21
155.291796068
0
LINE
5
53
100
AcDbEntity
8
traces
6
ByLayer
62
256
370
-1
100
AcDbLine
10
16
20
96.7082039325
11
16
21
155.291796068
0
LINE
5
54
100
AcDbEntity
8
traces
6
ByLayer
62
256
370
-1
100
AcDbLine
10
35.2917960675
20
92
11
24.7082039325
21
92
0
LINE
5
55
100
AcDbEntity
8
traces
6
ByLayer
62
256
370
-1
100
AcDbLine
10
35.2917960675
20
88
11
24.7082039325
21
88
0
ARC
5
56
100
AcDbEntity
8
traces
6
ByLayer
62
256
370
-1
100
AcDbCircle
10
42
20
90
40
7
100
AcDbArc
50
16.601549599
51
73.398450401
0
ARC
5
57
100
AcDbEntity
8
traces
6
ByLayer
62
256
370
-1
100
AcDbCircle
10
42
20
90
40
7
100
AcDbArc
50
196.601549599
51
253.398450401
0
ARC
5
58
100
AcDbEntity
8
traces
6
ByLayer
62
256
370
-1
100
AcDbCircle
10
42
20
90
40
7
100
AcDbArc
50
106.601549599
51
163.398450401
0
LINE
5
59
100
AcDbEntity
8
traces
6
ByLayer
62
256
370
-1
100
AcDbLine
10
59.2917960675
20
92
11
48.7082039325
21
92
0
LINE
5
5A
100
AcDbEntity
8
traces
6
ByLayer
62
256
370
-1
100
AcDbLine
10
59.2917960675
20
88
11
48.7082039325
21
88
0
ARC
5
5B
100
AcDbEntity
8
traces
6
ByLayer
62
256
370
-1
100
AcDbCircle
10
66
20
90
40
7
100
AcDbArc
50
196.601549599
51
253.398450401
0
ARC
5
5C
100
AcDbEntity
8
traces
6
ByLayer
62
256
370
-1
100
AcDbCircle
10
66
20
90
40
7
100
AcDbArc
50
106.601549599
51
163.398450401
0
ARC
5
5D
100
AcDbEntity
8
traces
6
ByLayer
62
256
370
-1
100
AcDbCircle
10
66
20
90
40
7
100
AcDbArc
50
286.601549599
51
73.398450401
0
LINE
5
5E
100
AcDbEntity
8
traces
6
ByLayer
62
256
370
-1
100
AcDbLine
10
68
20
96.7082039325
11
68
21
107.291796068
0
LINE
5
5F
100
AcDbEntity
8
traces
6
ByLayer
62
256
370
-1
100
AcDbLine
10
64
20
96.7082039325
11
64
21
107.291796068
0
ARC
5
60
100
AcDbEntity
8
traces
6
ByLayer
62
256
370
-1
100
AcDbCircle
10
66
20
114
40
7
100
AcDbArc
50
286.601549599
51
343.398450401
0
ARC
5
61
100
AcDbEntity
8
traces
6
ByLayer
62
256
370
-1
100
AcDbCircle
10
66
20
114
40
7
100
AcDbArc
50
16.601549599
51
253.398450401
0
LINE
5
62
100
AcDbEntity
8
traces
6
ByLayer
62
256
370
-1
100
AcDbLine
10
24.7082039325
20
160
11
83.2917960675
21
160
0
ARC
5
63
100
AcDbEntity
8
traces
6
ByLayer
62
256
370
-1
100
AcDbCircle
10
90
20
138
40
7
100
AcDbArc
50
16.601549599
51
73.398450401
0
ARC
5
64
100
AcDbEntity
8
traces
6
ByLayer
62
256
370
-1
100
AcDbCircle
10
90
20
138
40
7
100
AcDbArc
50
286.601549599
51
343.398450401
0
ARC
5
65
100
AcDbEntity
8
traces
6
ByLayer
62
256
370
-1
100
AcDbCircle
10
90
20
138
40
7
100
AcDbArc
50
106.601549599
51
163.398450401
0
LINE
5
66
100
AcDbEntity
8
traces
6
ByLayer
62
256
370
-1
100
AcDbLine
10
92
20
155.291796068
11
92
21
144.708203932
0
LINE
5
67
100
AcDbEntity
8
traces
6
ByLayer
62
256
370
-1
100
AcDbLine
10
92
20
131.291796068
11
92
21
120.708203932
0
LINE
5
68
100
AcDbEntity
8
traces
6
ByLayer
62
256
370
-1
100
AcDbLine
10
72.7082039325
20
112
11
83.2917960675
21
112
0
ARC
5
69
100
AcDbEntity
8
traces
6
ByLayer
62
256
370
-1
100
AcDbCircle
10
90
20
114
40
7
100
AcDbArc
50
106.601549599
51
163.398450401
0
LINE
5
6A
100
AcDbEntity
8
traces
6
ByLayer
62
256
370
-1
100
AcDbLine
10
72.7082039325
20
116
11
83.2917960675
21
116
0
ARC
5
6B
100
AcDbEntity
8
traces
6
ByLayer
62
256
370
-1
100
AcDbCircle
10
162
20
90
40
7
100
AcDbArc
50
286.601549599
51
73.398450401
0
ARC
5
6C
100
AcDbEntity
8
traces
6
ByLayer
62
256
370
-1
100
AcDbCircle
10
162
20
90
40
7
100
AcDbArc
50
196.601549599
51
253.398450401
0
ARC
5
6D
100
AcDbEntity
8
traces
6
ByLayer
62
256
370
-1
100
AcDbCircle
10
162
20
90
40
7
100
AcDbArc
50
106.601549599
51
163.398450401
0
LINE
5
6E
100
AcDbEntity
8
traces
6
ByLayer
62
256
370
-1
100
AcDbLine
10
160
20
96.7082039325
11
160
21
155.291796068
0
LINE
5
6F
100
AcDbEntity
8
traces
6
ByLayer
62
256
370
-1
100
AcDbLine
10
144.708203932
20
92
11
155.291796068
21
92
0
LINE
5
70
100
AcDbEntity
8
traces
6
ByLayer
62
256
370
-1
100
AcDbLine
10
144.708203932
20
88
11
155.291796068
21
88
0
ARC
5
71
100
AcDbEntity
8
traces
6
ByLayer
62
256
370
-1
100
AcDbCircle
10
138
20
90
40
7
100
AcDbArc
50
106.601549599
51
163.398450401
0
ARC
5
72
100
AcDbEntity
8
traces
6
ByLayer
62
256
370
-1
100
AcDbCircle
10
138
20
90
40
7
100
AcDbArc
50
16.601549599
51
73.398450401
0
LINE
5
73
100
AcDbEntity
8
traces
6
ByLayer
62
256
370
-1
100
AcDbLine
10
120.708203932
20
92
11
131.291796068
21
92
0
LINE
5
74
100
AcDbEntity
8
traces
6
ByLayer
62
256
370
-1
100
AcDbLine
10
120.708203932
20
88
11
131.291796068
21
88
0
ARC
5
75
100
AcDbEntity
8
traces
6
ByLayer
62
256
370
-1
100
AcDbCircle
10
114
20
90
40
7
100
AcDbArc
50
286.601549599
51
343.398450401
0
ARC
5
76
100
AcDbEntity
8
traces
6
ByLayer
62
256
370
-1
100
AcDbCircle
10
114
20
90
40
7
100
AcDbArc
50
16.601549599
51
73.398450401
0
ARC
5
77
100
AcDbEntity
8
traces
6
ByLayer
62
256
370
-1
100
AcDbCircle
10
114
20
90
40
7
100
AcDbArc
50
106.601549599
51
253.398450401
0
LINE
5
78
100
AcDbEntity
8
traces
6
ByLayer
62
256
370
-1
100
AcDbLine
10
112
20
96.7082039325
11
112
21
107.291796068
0
LINE
5
79
100
AcDbEntity
8
traces
6
ByLayer
62
256
370
-1
100
AcDbLine
10
116
20
96.7082039325
11
116
21
107.291796068
0
ARC
5
7A
100
AcDbEntity
8
traces
6
ByLayer
62
256
370
-1
100
AcDbCircle
10
114
20
114
40
7
100
AcDbArc
50
196.601549599
51
253.398450401
0
ARC
5
7B
100
AcDbEntity
8
traces
6
ByLayer
62
256
370
-1
100
AcDbCircle
10
114
20
114
40
7
100
AcDbArc
50
286.601549599
51
163.398450401
0
LINE
5
7C
100
AcDbEntity
8
traces
6
ByLayer
62
256
370
-1
100
AcDbLine
10
136
20
96.7082039325
11
136
21
131.291796068
0
LINE
5
7D
100
AcDbEntity
8
traces
6
ByLayer
62
256
370
-1
100
AcDbLine
10
140
20
96.7082039325
11
140
21
131.291796068
0
ARC
5
7E
100
AcDbEntity
8
traces
6
ByLayer
62
256
370
-1
100
AcDbCircle
10
138
20
138
40
7
100
AcDbArc
50
196.601549599
51
253.398450401
0
ARC
5
7F
100
AcDbEntity
8
traces
6
ByLayer
62
256
370
-1
100
AcDbCircle
10
138
20
138
40
7
100
AcDbArc
50
286.601549599
51
163.398450401
0
LINE
5
80
100
AcDbEntity
8
traces
6
ByLayer
62
256
370
-1
100
AcDbLine
10
155.291796068
20
164
11
96.7082039325
21
164
0
LINE
5
81
100
AcDbEntity
8
traces
6
ByLayer
62
256
370
-1
100
AcDbLine
10
131.291796068
20
136
11
96.7082039325
21
136
0
LINE
5
82
100
AcDbEntity
8
traces
6
ByLayer
62
256
370
-1
100
AcDbLine
10
131.291796068
20
140
11
96.7082039325
21
140
0
LINE
5
83
100
AcDbEntity
8
traces
6
ByLayer
62
256
370
-1
100
AcDbLine
10
107.291796068
20
116
11
96.7082039325
21
116
0
ARC
5
84
100
AcDbEntity
8
traces
6
ByLayer
62
256
370
-1
100
AcDbCircle
10
18
20
18
40
7
100
AcDbArc
50
16.601549599
51
73.398450401
0
ARC
5
85
100
AcDbEntity
8
traces
6
ByLayer
62
256
370
-1
100
AcDbCircle
10
18
20
18
40
7
100
AcDbArc
50
106.601549599
51
343.398450401
0
LINE
5
86
100
AcDbEntity
8
traces
6
ByLayer
62
256
370
-1
100
AcDbLine
10
16
20
83.2917960675
11
16
21
24.7082039325
0
LINE
5
87
100
AcDbEntity
8
traces
6
ByLayer
62
256
370
-1
100
AcDbLine
10
68
20
83.2917960675
11
68
21
72.7082039325
0
LINE
5
88
100
AcDbEntity
8
traces
6
ByLayer
62
256
370
-1
100
AcDbLine
10
64
20
83.2917960675
11
64
21
72.7082039325
0
ARC
5
89
100
AcDbEntity
8
traces
6
ByLayer
62
256
370
-1
100
AcDbCircle
10
66
20
66
40
7
100
AcDbArc
50
16.601549599
51
73.398450401
0
ARC
5
8A
100
AcDbEntity
8
traces
6
ByLayer
62
256
370
-1
100
AcDbCircle
10
66
20
66
40
7
100
AcDbArc
50
106.601549599
51
343.398450401
0
ARC
5
8B
100
AcDbEntity
8
traces
6
ByLayer
62
256
370
-1
100
AcDbCircle
10
42
20
42
40
7
100
AcDbArc
50
16.601549599
51
73.398450401
0
LINE
5
8C
100
AcDbEntity
8
traces
6
ByLayer
62
256
370
-1
100
AcDbLine
10
24.7082039325
20
20
11
83.2917960675
21
20
0
ARC
5
8D
100
AcDbEntity
8
traces
6
ByLayer
62
256
370
-1
100
AcDbCircle
10
90
20
18
40
7
100
AcDbArc
50
16.601549599
51
73.398450401
0
ARC
5
8E
100
AcDbEntity
8
traces
6
ByLayer
62
256
370
-1
100
AcDbCircle
10
90
20
42
40
7
100
AcDbArc
50
16.601549599
51
73.398450401
0
LINE
5
8F
100
AcDbEntity
8
traces
6
ByLayer
62
256
370
-1
100
AcDbLine
10
88
20
24.7082039325
11
88
21
35.2917960675
0
LINE
5
90
100
AcDbEntity
8
traces
6
ByLayer
62
256
370
-1
100
AcDbLine
10
92
20
24.7082039325
11
92
21
35.2917960675
0
LINE
5
91
100
AcDbEntity
8
traces
6
ByLayer
62
256
370
-1
100
AcDbLine
10
92
20
48.7082039325
11
92
21
59.2917960675
0
LINE
5
92
100
AcDbEntity
8
traces
6
ByLayer
62
256
370
-1
100
AcDbLine
10
72.7082039325
20
68
11
83.2917960675
21
68
0
ARC
5
93
100
AcDbEntity
8
traces
6
ByLayer
62
256
370
-1
100
AcDbCircle
10
90
20
66
40
7
100
AcDbArc
50
196.601549599
51
253.398450401
0
LINE
5
94
100
AcDbEntity
8
traces
6
ByLayer
62
256
370
-1
100
AcDbLine
10
72.7082039325
20
64
11
83.2917960675
21
64
0
ARC
5
95
100
AcDbEntity
8
traces
6
ByLayer
62
256
370
-1
100
AcDbCircle
10
162
20
18
40
7
100
AcDbArc
50
106.601549599
51
163.398450401
0
ARC
5
96
100
AcDbEntity
8
traces
6
ByLayer
62
256
370
-1
100
AcDbCircle
10
162
20
18
40
7
100
AcDbArc
50
196.601549599
51
73.398450401
0
LINE
5
97
100
AcDbEntity
8
traces
6
ByLayer
62
256
370
-1
100
AcDbLine
10
164
20
83.2917960675
11
164
21
24.7082039325
0
LINE
5
98
100
AcDbEntity
8
traces
6
ByLayer
62
256
370
-1
100
AcDbLine
10
112
20
83.2917960675
11
112
21
72.7082039325
0
LINE
5
99
100
AcDbEntity
8
traces
6
ByLayer
62
256
370
-1
100
AcDbLine
10
116
20
83.2917960675
11
116
21
72.7082039325
0
ARC
5
9A
100
AcDbEntity
8
traces
6
ByLayer
62
256
370
-1
100
AcDbCircle
10
114
20
66
40
7
100
AcDbArc
50
106.601549599
51
163.398450401
0
ARC
5
9B
100
AcDbEntity
8
traces
6
ByLayer
62
256
370
-1
100
AcDbCircle
10
114
20
66
40
7
100
AcDbArc
50
196.601549599
51
73.398450401
0
LINE
5
9C
100
AcDbEntity
8
traces
6
ByLayer
62
256
370
-1
100
AcDbLine
10
136
20
83.2917960675
11
136
21
48.7082039325
0
LINE
5
9D
100
AcDbEntity
8
traces
6
ByLayer
62
256
370
-1
100
AcDbLine
10
140
20
83.2917960675
11
140
21
48.7082039325
0
ARC
5
9E
100
AcDbEntity
8
traces
6
ByLayer
62
256
370
-1
100
AcDbCircle
10
138
20
42
40
7
100
AcDbArc
50
106.601549599
51
163.398450401
0
ARC
5
9F
100
AcDbEntity
8
traces
6
ByLayer
62
256
370
-1
100
AcDbCircle
10
138
20
42
40
7
100
AcDbArc
50
196.601549599
51
73.398450401
0
LINE
5
A0
100
AcDbEntity
8
traces
6
ByLayer
62
256
370
-1
100
AcDbLine
10
155.291796068
20
20
11
96.7082039325
21
20
0
LINE
5
A1
100
AcDbEntity
8
traces
6
ByLayer
62
256
370
-1
100
AcDbLine
10
155.291796068
20
16
11
96.7082039325
21
16
0
LINE
5
A2
100
AcDbEntity
8
traces
6
ByLayer
62
256
370
-1
100
AcDbLine
10
131.291796068
20
44
11
96.7082039325
21
44
0
LINE
5
A3
100
AcDbEntity
8
traces
6
ByLayer
62
256
370
-1
100
AcDbLine
10
131.291796068
20
40
11
96.7082039325
21
40
0
LINE
5
A4
100
AcDbEntity
8
traces
6
ByLayer
62
256
370
-1
100
AcDbLine
10
107.291796068
20
68
11
96.7082039325
21
68
0
LINE
5
A5
100
AcDbEntity
8
traces
6
ByLayer
62
256
370
-1
100
AcDbLine
10
107.291796068
20
64
11
96.7082039325
21
64
0
ARC
5
A6
100
AcDbEntity
8
traces
6
ByLayer
62
256
370
-1
100
AcDbCircle
10
90
20
114
40
7
100
AcDbArc
50
16.601549599
51
73.398450401
0
ARC
5
A7
100
AcDbEntity
8
traces
6
ByLayer
62
256
370
-1
100
AcDbCircle
10
90
20
66
40
7
100
AcDbArc
50
16.601549599
51
163.398450401
0
ARC
5
A8
100
AcDbEntity
8
traces
6
ByLayer
62
256
370
-1
100
AcDbCircle
10
90
20
66
40
7
100
AcDbArc
50
286.601549599
51
343.398450401
0
LINE
5
A9
100
AcDbEntity
8
traces
6
ByLayer
62
256
370
-1
100
AcDbLine
10
88
20
48.7082039325
11
88
21
59.2917960675
0
ARC
5
AA
100
AcDbEntity
8
traces
6
ByLayer
62
256
370
-1
100
AcDbCircle
10
90
20
42
40
7
100
AcDbArc
50
106.601549599
51
163.398450401
0
LINE
5
AB
100
AcDbEntity
8
traces
6
ByLayer
62
256
370
-1
100
AcDbLine
10
44
20
96.7082039325
11
44
21
131.291796068
0
LINE
5
AC
100
AcDbEntity
8
traces
6
ByLayer
62
256
370
-1
100
AcDbLine
10
40
20
96.7082039325
11
40
21
131.291796068
0
ARC
5
AD
100
AcDbEntity
8
traces
6
ByLayer
62
256
370
-1
100
AcDbCircle
10
42
20
138
40
7
100
AcDbArc
50
286.601549599
51
343.398450401
0
ARC
5
AE
100
AcDbEntity
8
traces
6
ByLayer
62
256
370
-1
100
AcDbCircle
10
42
20
138
40
7
100
AcDbArc
50
16.601549599
51
253.398450401
0
LINE
5
AF
100
AcDbEntity
8
traces
6
ByLayer
62
256
370
-1
100
AcDbLine
10
48.7082039325
20
140
11
83.2917960675
21
140
0
LINE
5
B0
100
AcDbEntity
8
traces
6
ByLayer
62
256
370
-1
100
AcDbLine
10
48.7082039325
20
136
11
83.2917960675
21
136
0
ARC
5
B1
100
AcDbEntity
8
traces
6
ByLayer
62
256
370
-1
100
AcDbCircle
10
162
20
162
40
7
100
AcDbArc
50
286.601549599
51
163.398450401
0
LINE
5
B2
100
AcDbEntity
8
traces
6
ByLayer
62
256
370
-1
100
AcDbLine
10
164
20
96.7082039325
11
164
21
155.291796068
0
ARC
5
B3
100
AcDbEntity
8
traces
6
ByLayer
62
256
370
-1
100
AcDbCircle
10
162
20
162
40
7
100
AcDbArc
50
196.601549599
51
253.398450401
0
ARC
5
B4
100
AcDbEntity
8
traces
6
ByLayer
62
256
370
-1
100
AcDbCircle
10
90
20
162
40
7
100
AcDbArc
50
286.601549599
51
343.398450401
0
LINE
5
B5
100
AcDbEntity
8
traces
6
ByLayer
62
256
370
-1
100
AcDbLine
10
155.291796068
20
160
11
96.7082039325
21
160
0
LINE
5
B6
100
AcDbEntity
8
traces
6
ByLayer
62
256
370
-1
100
AcDbLine
10
88
20
155.291796068
11
88
21
144.708203932
0
ARC
5
B7
100
AcDbEntity
8
traces
6
ByLayer
62
256
370
-1
100
AcDbCircle
10
90
20
162
40
7
100
AcDbArc
50
196.601549599
51
253.398450401
0
LINE
5
B8
100
AcDbEntity
8
traces
6
ByLayer
62
256
370
-1
100
AcDbLine
10
24.7082039325
20
164
11
83.2917960675
21
164
0
ARC
5
B9
100
AcDbEntity
8
traces
6
ByLayer
62
256
370
-1
100
AcDbCircle
10
90
20
162
40
7
100
AcDbArc
50
16.601549599
51
163.398450401
0
LINE
5
BA
100
AcDbEntity
8
traces
6
ByLayer
62
256
370
-1
100
AcDbLine
10
88
20
131.291796068
11
88
21
120.708203932
0
LINE
5
BB
100
AcDbEntity
8
traces
6
ByLayer
62
256
370
-1
100
AcDbLine
10
107.291796068
20
112
11
96.7082039325
21
112
0
ARC
5
BC
100
AcDbEntity
8
traces
6
ByLayer
62
256
370
-1
100
AcDbCircle
10
90
20
114
40
7
100
AcDbArc
50
196.601549599
51
343.398450401
0
ARC
5
BD
100
AcDbEntity
8
traces
6
ByLayer
62
256
370
-1
100
AcDbCircle
10
42
20
90
40
7
100
AcDbArc
50
286.601549599
51
343.398450401
0
LINE
5
BE
100
AcDbEntity
8
traces
6
ByLayer
62
256
370
-1
100
AcDbLine
10
24.7082039325
20
16
11
83.2917960675
21
16
0
ARC
5
BF
100
AcDbEntity
8
traces
6
ByLayer
62
256
370
-1
100
AcDbCircle
10
138
20
90
40
7
100
AcDbArc
50
196.601549599
51
253.398450401
0
ARC
5
C0
100
AcDbEntity
8
traces
6
ByLayer
62
256
370
-1
100
AcDbCircle
10
42
20
42
40
7
100
AcDbArc
50
106.601549599
51
343.398450401
0
ARC
5
C1
100
AcDbEntity
8
traces
6
ByLayer
62
256
370
-1
100
AcDbCircle
10
90
20
18
40
7
100
AcDbArc
50
106.601549599
51
163.398450401
0
ARC
5
C2
100
AcDbEntity
8
traces
6
ByLayer
62
256
370
-1
100
AcDbCircle
10
90
20
18
40
7
100
AcDbArc
50
196.601549599
51
343.398450401
0
ARC
5
C3
100
AcDbEntity
8
traces
6
ByLayer
62
256
370
-1
100
AcDbCircle
10
90
20
42
40
7
100
AcDbArc
50
196.601549599
51
253.398450401
0
LINE
5
C4
100
AcDbEntity
8
traces
6
ByLayer
62
256
370
-1
100
AcDbLine
10
40
20
83.2917960675
11
40
21
48.7082039325
0
LINE
5
C5
100
AcDbEntity
8
traces
6
ByLayer
62
256
370
-1
100
AcDbLine
10
44
20
83.2917960675
11
44
21
48.7082039325
0
LINE
5
C6
100
AcDbEntity
8
traces
6
ByLayer
62
256
370
-1
100
AcDbLine
10
48.7082039325
20
44
11
83.2917960675
21
44
0
LINE
5
C7
100
AcDbEntity
8
traces
6
ByLayer
62
256
370
-1
100
AcDbLine
10
48.7082039325
20
40
11
83.2917960675
21
40
0
LINE
5
C8
100
AcDbEntity
8
traces
6
ByLayer
62
256
370
-1
100
AcDbLine
10
20
20
83.2917960675
11
20
21
24.7082039325
0
LINE
5
C9
100
AcDbEntity
8
traces
6
ByLayer
62
256
370
-1
100
AcDbLine
10
160
20
83.2917960675
11
160
21
24.7082039325
0
ARC
5
CA
100
AcDbEntity
8
traces
6
ByLayer
62
256
370
-1
100
AcDbCircle
10
90
20
138
40
7
100
AcDbArc
50
196.601549599
51
253.398450401
0
ARC
5
CB
100
AcDbEntity
8
reverseplate
6
ByLayer
62
256
370
-1
100
AcDbCircle
10
42
20
138
40
10
100
AcDbArc
50
16.601549599
51
253.398450401
0
ARC
5
CC
100
AcDbEntity
8
reverseplate
6
ByLayer
62
256
370
-1
100
AcDbCircle
10
42
20
138
40
10
100
AcDbArc
50
286.601549599
51
343.398450401
0
ARC
5
CD
100
AcDbEntity
8
reverseplate
6
ByLayer
62
256
370
-1
100
AcDbCircle
10
42
20
90
40
10
100
AcDbArc
50
106.601549599
51
163.398450401
0
ARC
5
CE
100
AcDbEntity
8
reverseplate
6
ByLayer
62
256
370
-1
100
AcDbCircle
10
42
20
90
40
10
100
AcDbArc
50
286.601549599
51
343.398450401
0
ARC
5
CF
100
AcDbEntity
8
reverseplate
6
ByLayer
62
256
370
-1
100
AcDbCircle
10
42
20
90
40
10
100
AcDbArc
50
16.601549599
51
73.398450401
0
ARC
5
D0
100
AcDbEntity
8
reverseplate
6
ByLayer
62
256
370
-1
100
AcDbCircle
10
42
20
90
40
10
100
AcDbArc
50
196.601549599
51
253.398450401
0
ARC
5
D1
100
AcDbEntity
8
reverseplate
6
ByLayer
62
256
370
-1
100
AcDbCircle
10
18
20
90
40
10
100
AcDbArc
50
16.601549599
51
73.398450401
0
ARC
5
D2
100
AcDbEntity
8
reverseplate
6
ByLayer
62
256
370
-1
100
AcDbCircle
10
18
20
90
40
10
100
AcDbArc
50
286.601549599
51
343.398450401
0
ARC
5
D3
100
AcDbEntity
8
reverseplate
6
ByLayer
62
256
370
-1
100
AcDbCircle
10
18
20
90
40
10
100
AcDbArc
50
106.601549599
51
253.398450401
0
ARC
5
D4
100
AcDbEntity
8
reverseplate
6
ByLayer
62
256
370
-1
100
AcDbCircle
10
18
20
162
40
10
100
AcDbArc
50
16.601549599
51
253.398450401
0
ARC
5
D5
100
AcDbEntity
8
reverseplate
6
ByLayer
62
256
370
-1
100
AcDbCircle
10
18
20
162
40
10
100
AcDbArc
50
286.601549599
51
343.398450401
0
ARC
5
D6
100
AcDbEntity
8
reverseplate
6
ByLayer
62
256
370
-1
100
AcDbCircle
10
90
20
162
40
10
100
AcDbArc
50
16.601549599
51
163.398450401
0
ARC
5
D7
100
AcDbEntity
8
reverseplate
6
ByLayer
62
256
370
-1
100
AcDbCircle
10
90
20
162
40
10
100
AcDbArc
50
286.601549599
51
343.398450401
0
ARC
5
D8
100
AcDbEntity
8
reverseplate
6
ByLayer
62
256
370
-1
100
AcDbCircle
10
90
20
162
40
10
100
AcDbArc
50
196.601549599
51
253.398450401
0
ARC
5
D9
100
AcDbEntity
8
reverseplate
6
ByLayer
62
256
370
-1
100
AcDbCircle
10
162
20
162
40
10
100
AcDbArc
50
286.601549599
51
163.398450401
0
ARC
5
DA
100
AcDbEntity
8
reverseplate
6
ByLayer
62
256
370
-1
100
AcDbCircle
10
162
20
162
40
10
100
AcDbArc
50
196.601549599
51
253.398450401
0
ARC
5
DB
100
AcDbEntity
8
reverseplate
6
ByLayer
62
256
370
-1
100
AcDbCircle
10
138
20
138
40
10
100
AcDbArc
50
286.601549599
51
163.398450401
0
ARC
5
DC
100
AcDbEntity
8
reverseplate
6
ByLayer
62
256
370
-1
100
AcDbCircle
10
138
20
138
40
10
100
AcDbArc
50
196.601549599
51
253.398450401
0
ARC
5
DD
100
AcDbEntity
8
reverseplate
6
ByLayer
62
256
370
-1
100
AcDbCircle
10
90
20
138
40
10
100
AcDbArc
50
16.601549599
51
73.398450401
0
ARC
5
DE
100
AcDbEntity
8
reverseplate
6
ByLayer
62
256
370
-1
100
AcDbCircle
10
90
20
138
40
10
100
AcDbArc
50
106.601549599
51
163.398450401
0
ARC
5
DF
100
AcDbEntity
8
reverseplate
6
ByLayer
62
256
370
-1
100
AcDbCircle
10
90
20
138
40
10
100
AcDbArc
50
286.601549599
51
343.398450401
0
ARC
5
E0
100
AcDbEntity
8
reverseplate
6
ByLayer
62
256
370
-1
100
AcDbCircle
10
90
20
138
40
10
100
AcDbArc
50
196.601549599
51
253.398450401
0
ARC
5
E1
100
AcDbEntity
8
reverseplate
6
ByLayer
62
256
370
-1
100
AcDbCircle
10
162
20
90
40
10
100
AcDbArc
50
106.601549599
51
163.398450401
0
ARC
5
E2
100
AcDbEntity
8
reverseplate
6
ByLayer
62
256
370
-1
100
AcDbCircle
10
162
20
90
40
10
100
AcDbArc
50
286.601549599
51
73.398450401
0
ARC
5
E3
100
AcDbEntity
8
reverseplate
6
ByLayer
62
256
370
-1
100
AcDbCircle
10
162
20
90
40
10
100
AcDbArc
50
196.601549599
51
253.398450401
0
ARC
5
E4
100
AcDbEntity
8
reverseplate
6
ByLayer
62
256
370
-1
100
AcDbCircle
10
138
20
90
40
10
100
AcDbArc
50
16.601549599
51
73.398450401
0
ARC
5
E5
100
AcDbEntity
8
reverseplate
6
ByLayer
62
256
370
-1
100
AcDbCircle
10
138
20
90
40
10
100
AcDbArc
50
196.601549599
51
253.398450401
0
ARC
5
E6
100
AcDbEntity
8
reverseplate
6
ByLayer
62
256
370
-1
100
AcDbCircle
10
138
20
90
40
10
100
AcDbArc
50
106.601549599
51
163.398450401
0
ARC
5
E7
100
AcDbEntity
8
reverseplate
6
ByLayer
62
256
370
-1
100
AcDbCircle
10
114
20
90
40
10
100
AcDbArc
50
16.601549599
51
73.398450401
0
ARC
5
E8
100
AcDbEntity
8
reverseplate
6
ByLayer
62
256
370
-1
100
AcDbCircle
10
114
20
114
40
10
100
AcDbArc
50
286.601549599
51
163.398450401
0
ARC
5
E9
100
AcDbEntity
8
reverseplate
6
ByLayer
62
256
370
-1
100
AcDbCircle
10
114
20
114
40
10
100
AcDbArc
50
196.601549599
51
253.398450401
0
ARC
5
EA
100
AcDbEntity
8
reverseplate
6
ByLayer
62
256
370
-1
100
AcDbCircle
10
114
20
90
40
10
100
AcDbArc
50
106.601549599
51
253.398450401
0
ARC
5
EB
100
AcDbEntity
8
reverseplate
6
ByLayer
62
256
370
-1
100
AcDbCircle
10
114
20
90
40
10
100
AcDbArc
50
286.601549599
51
343.398450401
0
ARC
5
EC
100
AcDbEntity
8
reverseplate
6
ByLayer
62
256
370
-1
100
AcDbCircle
10
114
20
66
40
10
100
AcDbArc
50
196.601549599
51
73.398450401
0
ARC
5
ED
100
AcDbEntity
8
reverseplate
6
ByLayer
62
256
370
-1
100
AcDbCircle
10
114
20
66
40
10
100
AcDbArc
50
106.601549599
51
163.398450401
0
ARC
5
EE
100
AcDbEntity
8
reverseplate
6
ByLayer
62
256
370
-1
100
AcDbCircle
10
90
20
66
40
10
100
AcDbArc
50
16.601549599
51
163.398450401
0
ARC
5
EF
100
AcDbEntity
8
reverseplate
6
ByLayer
62
256
370
-1
100
AcDbCircle
10
90
20
66
40
10
100
AcDbArc
50
286.601549599
51
343.398450401
0
ARC
5
F0
100
AcDbEntity
8
reverseplate
6
ByLayer
62
256
370
-1
100
AcDbCircle
10
90
20
66
40
10
100
AcDbArc
50
196.601549599
51
253.398450401
0
ARC
5
F1
100
AcDbEntity
8
reverseplate
6
ByLayer
62
256
370
-1
100
AcDbCircle
10
66
20
90
40
10
100
AcDbArc
50
286.601549599
51
73.398450401
0
ARC
5
F2
100
AcDbEntity
8
reverseplate
6
ByLayer
62
256
370
-1
100
AcDbCircle
10
66
20
114
40
10
100
AcDbArc
50
286.601549599
51
343.398450401
0
ARC
5
F3
100
AcDbEntity
8
reverseplate
6
ByLayer
62
256
370
-1
100
AcDbCircle
10
90
20
114
40
10
100
AcDbArc
50
196.601549599
51
343.398450401
0
ARC
5
F4
100
AcDbEntity
8
reverseplate
6
ByLayer
62
256
370
-1
100
AcDbCircle
10
90
20
114
40
10
100
AcDbArc
50
106.601549599
51
163.398450401
0
ARC
5
F5
100
AcDbEntity
8
reverseplate
6
ByLayer
62
256
370
-1
100
AcDbCircle
10
66
20
114
40
10
100
AcDbArc
50
16.601549599
51
253.398450401
0
ARC
5
F6
100
AcDbEntity
8
reverseplate
6
ByLayer
62
256
370
-1
100
AcDbCircle
10
66
20
90
40
10
100
AcDbArc
50
106.601549599
51
163.398450401
0
ARC
5
F7
100
AcDbEntity
8
reverseplate
6
ByLayer
62
256
370
-1
100
AcDbCircle
10
66
20
90
40
10
100
AcDbArc
50
196.601549599
51
253.398450401
0
ARC
5
F8
100
AcDbEntity
8
reverseplate
6
ByLayer
62
256
370
-1
100
AcDbCircle
10
66
20
66
40
10
100
AcDbArc
50
106.601549599
51
343.398450401
0
ARC
5
F9
100
AcDbEntity
8
reverseplate
6
ByLayer
62
256
370
-1
100
AcDbCircle
10
90
20
114
40
10
100
AcDbArc
50
16.601549599
51
73.398450401
0
ARC
5
FA
100
AcDbEntity
8
reverseplate
6
ByLayer
62
256
370
-1
100
AcDbCircle
10
66
20
66
40
10
100
AcDbArc
50
16.601549599
51
73.398450401
0
ARC
5
FB
100
AcDbEntity
8
reverseplate
6
ByLayer
62
256
370
-1
100
AcDbCircle
10
42
20
42
40
10
100
AcDbArc
50
16.601549599
51
73.398450401
0
ARC
5
FC
100
AcDbEntity
8
reverseplate
6
ByLayer
62
256
370
-1
100
AcDbCircle
10
90
20
42
40
10
100
AcDbArc
50
106.601549599
51
163.398450401
0
ARC
5
FD
100
AcDbEntity
8
reverseplate
6
ByLayer
62
256
370
-1
100
AcDbCircle
10
90
20
42
40
10
100
AcDbArc
50
16.601549599
51
73.398450401
0
ARC
5
FE
100
AcDbEntity
8
reverseplate
6
ByLayer
62
256
370
-1
100
AcDbCircle
10
138
20
42
40
10
100
AcDbArc
50
106.601549599
51
163.398450401
0
ARC
5
FF
100
AcDbEntity
8
reverseplate
6
ByLayer
62
256
370
-1
100
AcDbCircle
10
138
20
42
40
10
100
AcDbArc
50
196.601549599
51
73.398450401
0
ARC
5
100
100
AcDbEntity
8
reverseplate
6
ByLayer
62
256
370
-1
100
AcDbCircle
10
90
20
42
40
10
100
AcDbArc
50
196.601549599
51
253.398450401
0
ARC
5
101
100
AcDbEntity
8
reverseplate
6
ByLayer
62
256
370
-1
100
AcDbCircle
10
42
20
42
40
10
100
AcDbArc
50
106.601549599
51
343.398450401
0
ARC
5
102
100
AcDbEntity
8
reverseplate
6
ByLayer
62
256
370
-1
100
AcDbCircle
10
18
20
18
40
10
100
AcDbArc
50
106.601549599
51
343.398450401
0
ARC
5
103
100
AcDbEntity
8
reverseplate
6
ByLayer
62
256
370
-1
100
AcDbCircle
10
18
20
18
40
10
100
AcDbArc
50
16.601549599
51
73.398450401
0
ARC
5
104
100
AcDbEntity
8
reverseplate
6
ByLayer
62
256
370
-1
100
AcDbCircle
10
90
20
18
40
10
100
AcDbArc
50
106.601549599
51
163.398450401
0
ARC
5
105
100
AcDbEntity
8
reverseplate
6
ByLayer
62
256
370
-1
100
AcDbCircle
10
90
20
18
40
10
100
AcDbArc
50
16.601549599
51
73.398450401
0
ARC
5
106
100
AcDbEntity
8
reverseplate
6
ByLayer
62
256
370
-1
100
AcDbCircle
10
90
20
18
40
10
100
AcDbArc
50
196.601549599
51
343.398450401
0
ARC
5
107
100
AcDbEntity
8
reverseplate
6
ByLayer
62
256
370
-1
100
AcDbCircle
10
162
20
18
40
10
100
AcDbArc
50
106.601549599
51
163.398450401
0
ARC
5
108
100
AcDbEntity
8
reverseplate
6
ByLayer
62
256
370
-1
100
AcDbCircle
10
162
20
18
40
10
100
AcDbArc
50
196.601549599
51
73.398450401
0
LINE
5
109
100
AcDbEntity
8
reverseplate
6
ByLayer
62
256
370
-1
100
AcDbLine
10
27.583148475
20
164.857142857
11
80.416851525
21
164.857142857
0
LINE
5
10A
100
AcDbEntity
8
reverseplate
6
ByLayer
62
256
370
-1
100
AcDbLine
10
27.583148475
20
159.142857143
11
80.416851525
21
159.142857143
0
LINE
5
10B
100
AcDbEntity
8
reverseplate
6
ByLayer
62
256
370
-1
100
AcDbLine
10
99.583148475
20
164.857142857
11
152.416851525
21
164.857142857
0
LINE
5
10C
100
AcDbEntity
8
reverseplate
6
ByLayer
62
256
370
-1
100
AcDbLine
10
164.857142857
20
152.416851525
11
164.857142857
21
99.583148475
0
LINE
5
10D
100
AcDbEntity
8
reverseplate
6
ByLayer
62
256
370
-1
100
AcDbLine
10
164.857142857
20
80.416851525
11
164.857142857
21
27.583148475
0
LINE
5
10E
100
AcDbEntity
8
reverseplate
6
ByLayer
62
256
370
-1
100
AcDbLine
10
152.416851525
20
15.1428571429
11
99.583148475
21
15.1428571429
0
LINE
5
10F
100
AcDbEntity
8
reverseplate
6
ByLayer
62
256
370
-1
100
AcDbLine
10
80.416851525
20
15.1428571429
11
27.583148475
21
15.1428571429
0
LINE
5
110
100
AcDbEntity
8
reverseplate
6
ByLayer
62
256
370
-1
100
AcDbLine
10
15.1428571429
20
27.583148475
11
15.1428571429
21
80.416851525
0
LINE
5
111
100
AcDbEntity
8
reverseplate
6
ByLayer
62
256
370
-1
100
AcDbLine
10
15.1428571429
20
99.583148475
11
15.1428571429
21
152.416851525
0
LINE
5
112
100
AcDbEntity
8
reverseplate
6
ByLayer
62
256
370
-1
100
AcDbLine
10
20.8571428571
20
152.416851525
11
20.8571428571
21
99.583148475
0
LINE
5
113
100
AcDbEntity
8
reverseplate
6
ByLayer
62
256
370
-1
100
AcDbLine
10
20.8571428571
20
80.416851525
11
20.8571428571
21
27.583148475
0
LINE
5
114
100
AcDbEntity
8
reverseplate
6
ByLayer
62
256
370
-1
100
AcDbLine
10
27.583148475
20
20.8571428571
11
80.416851525
21
20.8571428571
0
LINE
5
115
100
AcDbEntity
8
reverseplate
6
ByLayer
62
256
370
-1
100
AcDbLine
10
99.583148475
20
20.8571428571
11
152.416851525
21
20.8571428571
0
LINE
5
116
100
AcDbEntity
8
reverseplate
6
ByLayer
62
256
370
-1
100
AcDbLine
10
159.142857143
20
27.583148475
11
159.142857143
21
80.416851525
0
LINE
5
117
100
AcDbEntity
8
reverseplate
6
ByLayer
62
256
370
-1
100
AcDbLine
10
159.142857143
20
99.583148475
11
159.142857143
21
152.416851525
0
LINE
5
118
100
AcDbEntity
8
reverseplate
6
ByLayer
62
256
370
-1
100
AcDbLine
10
152.416851525
20
159.142857143
11
99.583148475
21
159.142857143
0
LINE
5
119
100
AcDbEntity
8
reverseplate
6
ByLayer
62
256
370
-1
100
AcDbLine
10
92.8571428571
20
152.416851525
11
92.8571428571
21
147.583148475
0
LINE
5
11A
100
AcDbEntity
8
reverseplate
6
ByLayer
62
256
370
-1
100
AcDbLine
10
99.583148475
20
140.857142857
11
128.416851525
21
140.857142857
0
LINE
5
11B
100
AcDbEntity
8
reverseplate
6
ByLayer
62
256
370
-1
100
AcDbLine
10
99.583148475
20
135.142857143
11
128.416851525
21
135.142857143
0
LINE
5
11C
100
AcDbEntity
8
reverseplate
6
ByLayer
62
256
370
-1
100
AcDbLine
10
135.142857143
20
128.416851525
11
135.142857143
21
99.583148475
0
LINE
5
11D
100
AcDbEntity
8
reverseplate
6
ByLayer
62
256
370
-1
100
AcDbLine
10
140.857142857
20
128.416851525
11
140.857142857
21
99.583148475
0
ARC
5
11E
100
AcDbEntity
8
traces
6
ByLayer
62
256
370
-1
100
AcDbCircle
10
90
20
42
40
7
100
AcDbArc
50
286.601549599
51
343.398450401
0
ARC
5
11F
100
AcDbEntity
8
traces
6
ByLayer
62
256
370
-1
100
AcDbCircle
10
138
20
90
40
7
100
AcDbArc
50
286.601549599
51
343.398450401
0
LINE
5
120
100
AcDbEntity
8
reverseplate
6
ByLayer
62
256
370
-1
100
AcDbLine
10
51.583148475
20
140.857142857
11
80.416851525
21
140.857142857
0
LINE
5
121
100
AcDbEntity
8
reverseplate
6
ByLayer
62
256
370
-1
100
AcDbLine
10
87.1428571429
20
147.583148475
11
87.1428571429
21
152.416851525
0
LINE
5
122
100
AcDbEntity
8
reverseplate
6
ByLayer
62
256
370
-1
100
AcDbLine
10
51.583148475
20
135.142857143
11
80.416851525
21
135.142857143
0
LINE
5
123
100
AcDbEntity
8
reverseplate
6
ByLayer
62
256
370
-1
100
AcDbLine
10
87.1428571429
20
128.416851525
11
87.1428571429
21
123.583148475
0
LINE
5
124
100
AcDbEntity
8
reverseplate
6
ByLayer
62
256
370
-1
100
AcDbLine
10
92.8571428571
20
128.416851525
11
92.8571428571
21
123.583148475
0
LINE
5
125
100
AcDbEntity
8
reverseplate
6
ByLayer
62
256
370
-1
100
AcDbLine
10
75.583148475
20
116.857142857
11
80.416851525
21
116.857142857
0
LINE
5
126
100
AcDbEntity
8
reverseplate
6
ByLayer
62
256
370
-1
100
AcDbLine
10
80.416851525
20
111.142857143
11
75.583148475
21
111.142857143
0
LINE
5
127
100
AcDbEntity
8
reverseplate
6
ByLayer
62
256
370
-1
100
AcDbLine
10
68.8571428571
20
104.416851525
11
68.8571428571
21
99.583148475
0
LINE
5
128
100
AcDbEntity
8
reverseplate
6
ByLayer
62
256
370
-1
100
AcDbLine
10
63.1428571429
20
104.416851525
11
63.1428571429
21
99.583148475
0
LINE
5
129
100
AcDbEntity
8
reverseplate
6
ByLayer
62
256
370
-1
100
AcDbLine
10
63.1428571429
20
80.416851525
11
63.1428571429
21
75.583148475
0
LINE
5
12A
100
AcDbEntity
8
reverseplate
6
ByLayer
62
256
370
-1
100
AcDbLine
10
68.8571428571
20
80.416851525
11
68.8571428571
21
75.583148475
0
LINE
5
12B
100
AcDbEntity
8
reverseplate
6
ByLayer
62
256
370
-1
100
AcDbLine
10
51.583148475
20
92.8571428571
11
56.416851525
21
92.8571428571
0
LINE
5
12C
100
AcDbEntity
8
reverseplate
6
ByLayer
62
256
370
-1
100
AcDbLine
10
51.583148475
20
87.1428571429
11
56.416851525
21
87.1428571429
0
LINE
5
12D
100
AcDbEntity
8
reverseplate
6
ByLayer
62
256
370
-1
100
AcDbLine
10
44.8571428571
20
99.583148475
11
44.8571428571
21
128.416851525
0
LINE
5
12E
100
AcDbEntity
8
reverseplate
6
ByLayer
62
256
370
-1
100
AcDbLine
10
39.1428571429
20
128.416851525
11
39.1428571429
21
99.583148475
0
LINE
5
12F
100
AcDbEntity
8
reverseplate
6
ByLayer
62
256
370
-1
100
AcDbLine
10
39.1428571429
20
80.416851525
11
39.1428571429
21
51.583148475
0
LINE
5
130
100
AcDbEntity
8
reverseplate
6
ByLayer
62
256
370
-1
100
AcDbLine
10
44.8571428571
20
80.416851525
11
44.8571428571
21
51.583148475
0
LINE
5
131
100
AcDbEntity
8
reverseplate
6
ByLayer
62
256
370
-1
100
AcDbLine
10
27.583148475
20
92.8571428571
11
32.416851525
21
92.8571428571
0
LINE
5
132
100
AcDbEntity
8
reverseplate
6
ByLayer
62
256
370
-1
100
AcDbLine
10
27.583148475
20
87.1428571429
11
32.416851525
21
87.1428571429
0
LINE
5
133
100
AcDbEntity
8
reverseplate
6
ByLayer
62
256
370
-1
100
AcDbLine
10
51.583148475
20
44.8571428571
11
80.416851525
21
44.8571428571
0
LINE
5
134
100
AcDbEntity
8
reverseplate
6
ByLayer
62
256
370
-1
100
AcDbLine
10
75.583148475
20
68.8571428571
11
80.416851525
21
68.8571428571
0
LINE
5
135
100
AcDbEntity
8
reverseplate
6
ByLayer
62
256
370
-1
100
AcDbLine
10
75.583148475
20
63.1428571429
11
80.416851525
21
63.1428571429
0
LINE
5
136
100
AcDbEntity
8
reverseplate
6
ByLayer
62
256
370
-1
100
AcDbLine
10
99.583148475
20
68.8571428571
11
104.416851525
21
68.8571428571
0
LINE
5
137
100
AcDbEntity
8
reverseplate
6
ByLayer
62
256
370
-1
100
AcDbLine
10
99.583148475
20
63.1428571429
11
104.416851525
21
63.1428571429
0
LINE
5
138
100
AcDbEntity
8
reverseplate
6
ByLayer
62
256
370
-1
100
AcDbLine
10
111.142857143
20
80.416851525
11
111.142857143
21
75.583148475
0
LINE
5
139
100
AcDbEntity
8
reverseplate
6
ByLayer
62
256
370
-1
100
AcDbLine
10
116.857142857
20
75.583148475
11
116.857142857
21
80.416851525
0
LINE
5
13A
100
AcDbEntity
8
reverseplate
6
ByLayer
62
256
370
-1
100
AcDbLine
10
111.142857143
20
104.416851525
11
111.142857143
21
99.583148475
0
LINE
5
13B
100
AcDbEntity
8
reverseplate
6
ByLayer
62
256
370
-1
100
AcDbLine
10
116.857142857
20
99.583148475
11
116.857142857
21
104.416851525
0
LINE
5
13C
100
AcDbEntity
8
reverseplate
6
ByLayer
62
256
370
-1
100
AcDbLine
10
99.583148475
20
116.857142857
11
104.416851525
21
116.857142857
0
LINE
5
13D
100
AcDbEntity
8
reverseplate
6
ByLayer
62
256
370
-1
100
AcDbLine
10
99.583148475
20
111.142857143
11
104.416851525
21
111.142857143
0
LINE
5
13E
100
AcDbEntity
8
reverseplate
6
ByLayer
62
256
370
-1
100
AcDbLine
10
123.583148475
20
92.8571428571
11
128.416851525
21
92.8571428571
0
LINE
5
13F
100
AcDbEntity
8
reverseplate
6
ByLayer
62
256
370
-1
100
AcDbLine
10
123.583148475
20
87.1428571429
11
128.416851525
21
87.1428571429
0
ARC
5
140
100
AcDbEntity
8
reverseplate
6
ByLayer
62
256
370
-1
100
AcDbCircle
10
90
20
42
40
10
100
AcDbArc
50
286.601549599
51
343.398450401
0
ARC
5
141
100
AcDbEntity
8
reverseplate
6
ByLayer
62
256
370
-1
100
AcDbCircle
10
138
20
90
40
10
100
AcDbArc
50
286.601549599
51
343.398450401
0
LINE
5
142
100
AcDbEntity
8
reverseplate
6
ByLayer
62
256
370
-1
100
AcDbLine
10
51.583148475
20
39.1428571429
11
80.416851525
21
39.1428571429
0
LINE
5
143
100
AcDbEntity
8
reverseplate
6
ByLayer
62
256
370
-1
100
AcDbLine
10
87.1428571429
20
51.583148475
11
87.1428571429
21
56.416851525
0
LINE
5
144
100
AcDbEntity
8
reverseplate
6
ByLayer
62
256
370
-1
100
AcDbLine
10
92.8571428571
20
56.416851525
11
92.8571428571
21
51.583148475
0
LINE
5
145
100
AcDbEntity
8
reverseplate
6
ByLayer
62
256
370
-1
100
AcDbLine
10
92.8571428571
20
32.416851525
11
92.8571428571
21
27.583148475
0
LINE
5
146
100
AcDbEntity
8
reverseplate
6
ByLayer
62
256
370
-1
100
AcDbLine
10
87.1428571429
20
32.416851525
11
87.1428571429
21
27.583148475
0
LINE
5
147
100
AcDbEntity
8
reverseplate
6
ByLayer
62
256
370
-1
100
AcDbLine
10
99.583148475
20
44.8571428571
11
128.416851525
21
44.8571428571
0
LINE
5
148
100
AcDbEntity
8
reverseplate
6
ByLayer
62
256
370
-1
100
AcDbLine
10
99.583148475
20
39.1428571429
11
128.416851525
21
39.1428571429
0
LINE
5
149
100
AcDbEntity
8
reverseplate
6
ByLayer
62
256
370
-1
100
AcDbLine
10
135.142857143
20
51.583148475
11
135.142857143
21
80.416851525
0
LINE
5
14A
100
AcDbEntity
8
reverseplate
6
ByLayer
62
256
370
-1
100
AcDbLine
10
140.857142857
20
80.416851525
11
140.857142857
21
51.583148475
0
LINE
5
14B
100
AcDbEntity
8
reverseplate
6
ByLayer
62
256
370
-1
100
AcDbLine
10
147.583148475
20
87.1428571429
11
152.416851525
21
87.1428571429
0
LINE
5
14C
100
AcDbEntity
8
reverseplate
6
ByLayer
62
256
370
-1
100
AcDbLine
10
147.583148475
20
92.8571428571
11
152.416851525
21
92.8571428571
0
CIRCLE
5
14D
100
AcDbEntity
8
reverseplate
6
ByLayer
62
256
370
-1
100
AcDbCircle
10
18
20
162
40
7
0
CIRCLE
5
14E
100
AcDbEntity
8
reverseplate
6
ByLayer
62
256
370
-1
100
AcDbCircle
10
18
20
90
40
7
0
CIRCLE
5
14F
100
AcDbEntity
8
reverseplate
6
ByLayer
62
256
370
-1
100
AcDbCircle
10
18
20
18
40
7
0
CIRCLE
5
150
100
AcDbEntity
8
reverseplate
6
ByLayer
62
256
370
-1
100
AcDbCircle
10
90
20
18
40
7
0
CIRCLE
5
151
100
AcDbEntity
8
reverseplate
6
ByLayer
62
256
370
-1
100
AcDbCircle
10
162
20
18
40
7
0
CIRCLE
5
152
100
AcDbEntity
8
reverseplate
6
ByLayer
62
256
370
-1
100
AcDbCircle
10
162
20
90
40
7
0
CIRCLE
5
153
100
AcDbEntity
8
reverseplate
6
ByLayer
62
256
370
-1
100
AcDbCircle
10
162
20
162
40
7
0
CIRCLE
5
154
100
AcDbEntity
8
reverseplate
6
ByLayer
62
256
370
-1
100
AcDbCircle
10
90
20
162
40
7
0
CIRCLE
5
155
100
AcDbEntity
8
reverseplate
6
ByLayer
62
256
370
-1
100
AcDbCircle
10
90
20
138
40
7
0
CIRCLE
5
156
100
AcDbEntity
8
reverseplate
6
ByLayer
62
256
370
-1
100
AcDbCircle
10
138
20
138
40
7
0
CIRCLE
5
157
100
AcDbEntity
8
reverseplate
6
ByLayer
62
256
370
-1
100
AcDbCircle
10
42
20
138
40
7
0
CIRCLE
5
158
100
AcDbEntity
8
reverseplate
6
ByLayer
62
256
370
-1
100
AcDbCircle
10
66
20
114
40
7
0
CIRCLE
5
159
100
AcDbEntity
8
reverseplate
6
ByLayer
62
256
370
-1
100
AcDbCircle
10
66
20
90
40
7
0
CIRCLE
5
15A
100
AcDbEntity
8
reverseplate
6
ByLayer
62
256
370
-1
100
AcDbCircle
10
66
20
66
40
7
0
CIRCLE
5
15B
100
AcDbEntity
8
reverseplate
6
ByLayer
62
256
370
-1
100
AcDbCircle
10
90
20
66
40
7
0
CIRCLE
5
15C
100
AcDbEntity
8
reverseplate
6
ByLayer
62
256
370
-1
100
AcDbCircle
10
90
20
42
40
7
0
CIRCLE
5
15D
100
AcDbEntity
8
reverseplate
6
ByLayer
62
256
370
-1
100
AcDbCircle
10
114
20
66
40
7
0
CIRCLE
5
15E
100
AcDbEntity
8
reverseplate
6
ByLayer
62
256
370
-1
100
AcDbCircle
10
114
20
90
40
7
0
CIRCLE
5
15F
100
AcDbEntity
8
reverseplate
6
ByLayer
62
256
370
-1
100
AcDbCircle
10
138
20
90
40
7
0
CIRCLE
5
160
100
AcDbEntity
8
reverseplate
6
ByLayer
62
256
370
-1
100
AcDbCircle
10
138
20
42
40
7
0
CIRCLE
5
161
100
AcDbEntity
8
reverseplate
6
ByLayer
62
256
370
-1
100
AcDbCircle
10
114
20
114
40
7
0
CIRCLE
5
162
100
AcDbEntity
8
reverseplate
6
ByLayer
62
256
370
-1
100
AcDbCircle
10
90
20
114
40
7
0
CIRCLE
5
163
100
AcDbEntity
8
reverseplate
6
ByLayer
62
256
370
-1
100
AcDbCircle
10
42
20
42
40
7
0
CIRCLE
5
164
100
AcDbEntity
8
reverseplate
6
ByLayer
62
256
370
-1
100
AcDbCircle
10
42
20
90
40
7
0
ARC
5
165
100
AcDbEntity
8
reverseplate-withoutholes
6
ByLayer
62
256
370
-1
100
AcDbCircle
10
42
20
138
40
10
100
AcDbArc
50
16.601549599
51
253.398450401
0
ARC
5
166
100
AcDbEntity
8
reverseplate-withoutholes
6
ByLayer
62
256
370
-1
100
AcDbCircle
10
42
20
138
40
10
100
AcDbArc
50
286.601549599
51
343.398450401
0
ARC
5
167
100
AcDbEntity
8
reverseplate-withoutholes
6
ByLayer
62
256
370
-1
100
AcDbCircle
10
42
20
90
40
10
100
AcDbArc
50
106.601549599
51
163.398450401
0
ARC
5
168
100
AcDbEntity
8
reverseplate-withoutholes
6
ByLayer
62
256
370
-1
100
AcDbCircle
10
42
20
90
40
10
100
AcDbArc
50
286.601549599
51
343.398450401
0
ARC
5
169
100
AcDbEntity
8
reverseplate-withoutholes
6
ByLayer
62
256
370
-1
100
AcDbCircle
10
42
20
90
40
10
100
AcDbArc
50
16.601549599
51
73.398450401
0
ARC
5
16A
100
AcDbEntity
8
reverseplate-withoutholes
6
ByLayer
62
256
370
-1
100
AcDbCircle
10
42
20
90
40
10
100
AcDbArc
50
196.601549599
51
253.398450401
0
ARC
5
16B
100
AcDbEntity
8
reverseplate-withoutholes
6
ByLayer
62
256
370
-1
100
AcDbCircle
10
18
20
90
40
10
100
AcDbArc
50
16.601549599
51
73.398450401
0
ARC
5
16C
100
AcDbEntity
8
reverseplate-withoutholes
6
ByLayer
62
256
370
-1
100
AcDbCircle
10
18
20
90
40
10
100
AcDbArc
50
286.601549599
51
343.398450401
0
ARC
5
16D
100
AcDbEntity
8
reverseplate-withoutholes
6
ByLayer
62
256
370
-1
100
AcDbCircle
10
18
20
90
40
10
100
AcDbArc
50
106.601549599
51
253.398450401
0
ARC
5
16E
100
AcDbEntity
8
reverseplate-withoutholes
6
ByLayer
62
256
370
-1
100
AcDbCircle
10
18
20
162
40
10
100
AcDbArc
50
16.601549599
51
253.398450401
0
ARC
5
16F
100
AcDbEntity
8
reverseplate-withoutholes
6
ByLayer
62
256
370
-1
100
AcDbCircle
10
18
20
162
40
10
100
AcDbArc
50
286.601549599
51
343.398450401
0
ARC
5
170
100
AcDbEntity
8
reverseplate-withoutholes
6
ByLayer
62
256
370
-1
100
AcDbCircle
10
90
20
162
40
10
100
AcDbArc
50
16.601549599
51
163.398450401
0
ARC
5
171
100
AcDbEntity
8
reverseplate-withoutholes
6
ByLayer
62
256
370
-1
100
AcDbCircle
10
90
20
162
40
10
100
AcDbArc
50
286.601549599
51
343.398450401
0
ARC
5
172
100
AcDbEntity
8
reverseplate-withoutholes
6
ByLayer
62
256
370
-1
100
AcDbCircle
10
90
20
162
40
10
100
AcDbArc
50
196.601549599
51
253.398450401
0
ARC
5
173
100
AcDbEntity
8
reverseplate-withoutholes
6
ByLayer
62
256
370
-1
100
AcDbCircle
10
162
20
162
40
10
100
AcDbArc
50
286.601549599
51
163.398450401
0
ARC
5
174
100
AcDbEntity
8
reverseplate-withoutholes
6
ByLayer
62
256
370
-1
100
AcDbCircle
10
162
20
162
40
10
100
AcDbArc
50
196.601549599
51
253.398450401
0
ARC
5
175
100
AcDbEntity
8
reverseplate-withoutholes
6
ByLayer
62
256
370
-1
100
AcDbCircle
10
138
20
138
40
10
100
AcDbArc
50
286.601549599
51
163.398450401
0
ARC
5
176
100
AcDbEntity
8
reverseplate-withoutholes
6
ByLayer
62
256
370
-1
100
AcDbCircle
10
138
20
138
40
10
100
AcDbArc
50
196.601549599
51
253.398450401
0
ARC
5
177
100
AcDbEntity
8
reverseplate-withoutholes
6
ByLayer
62
256
370
-1
100
AcDbCircle
10
90
20
138
40
10
100
AcDbArc
50
16.601549599
51
73.398450401
0
ARC
5
178
100
AcDbEntity
8
reverseplate-withoutholes
6
ByLayer
62
256
370
-1
100
AcDbCircle
10
90
20
138
40
10
100
AcDbArc
50
106.601549599
51
163.398450401
0
ARC
5
179
100
AcDbEntity
8
reverseplate-withoutholes
6
ByLayer
62
256
370
-1
100
AcDbCircle
10
90
20
138
40
10
100
AcDbArc
50
286.601549599
51
343.398450401
0
ARC
5
17A
100
AcDbEntity
8
reverseplate-withoutholes
6
ByLayer
62
256
370
-1
100
AcDbCircle
10
90
20
138
40
10
100
AcDbArc
50
196.601549599
51
253.398450401
0
ARC
5
17B
100
AcDbEntity
8
reverseplate-withoutholes
6
ByLayer
62
256
370
-1
100
AcDbCircle
10
162
20
90
40
10
100
AcDbArc
50
106.601549599
51
163.398450401
0
ARC
5
17C
100
AcDbEntity
8
reverseplate-withoutholes
6
ByLayer
62
256
370
-1
100
AcDbCircle
10
162
20
90
40
10
100
AcDbArc
50
286.601549599
51
73.398450401
0
ARC
5
17D
100
AcDbEntity
8
reverseplate-withoutholes
6
ByLayer
62
256
370
-1
100
AcDbCircle
10
162
20
90
40
10
100
AcDbArc
50
196.601549599
51
253.398450401
0
ARC
5
17E
100
AcDbEntity
8
reverseplate-withoutholes
6
ByLayer
62
256
370
-1
100
AcDbCircle
10
138
20
90
40
10
100
AcDbArc
50
16.601549599
51
73.398450401
0
ARC
5
17F
100
AcDbEntity
8
reverseplate-withoutholes
6
ByLayer
62
256
370
-1
100
AcDbCircle
10
138
20
90
40
10
100
AcDbArc
50
196.601549599
51
253.398450401
0
ARC
5
180
100
AcDbEntity
8
reverseplate-withoutholes
6
ByLayer
62
256
370
-1
100
AcDbCircle
10
138
20
90
40
10
100
AcDbArc
50
106.601549599
51
163.398450401
0
ARC
5
181
100
AcDbEntity
8
reverseplate-withoutholes
6
ByLayer
62
256
370
-1
100
AcDbCircle
10
114
20
90
40
10
100
AcDbArc
50
16.601549599
51
73.398450401
0
ARC
5
182
100
AcDbEntity
8
reverseplate-withoutholes
6
ByLayer
62
256
370
-1
100
AcDbCircle
10
114
20
114
40
10
100
AcDbArc
50
286.601549599
51
163.398450401
0
ARC
5
183
100
AcDbEntity
8
reverseplate-withoutholes
6
ByLayer
62
256
370
-1
100
AcDbCircle
10
114
20
114
40
10
100
AcDbArc
50
196.601549599
51
253.398450401
0
ARC
5
184
100
AcDbEntity
8
reverseplate-withoutholes
6
ByLayer
62
256
370
-1
100
AcDbCircle
10
114
20
90
40
10
100
AcDbArc
50
106.601549599
51
253.398450401
0
ARC
5
185
100
AcDbEntity
8
reverseplate-withoutholes
6
ByLayer
62
256
370
-1
100
AcDbCircle
10
114
20
90
40
10
100
AcDbArc
50
286.601549599
51
343.398450401
0
ARC
5
186
100
AcDbEntity
8
reverseplate-withoutholes
6
ByLayer
62
256
370
-1
100
AcDbCircle
10
114
20
66
40
10
100
AcDbArc
50
196.601549599
51
73.398450401
0
ARC
5
187
100
AcDbEntity
8
reverseplate-withoutholes
6
ByLayer
62
256
370
-1
100
AcDbCircle
10
114
20
66
40
10
100
AcDbArc
50
106.601549599
51
163.398450401
0
ARC
5
188
100
AcDbEntity
8
reverseplate-withoutholes
6
ByLayer
62
256
370
-1
100
AcDbCircle
10
90
20
66
40
10
100
AcDbArc
50
16.601549599
51
163.398450401
0
ARC
5
189
100
AcDbEntity
8
reverseplate-withoutholes
6
ByLayer
62
256
370
-1
100
AcDbCircle
10
90
20
66
40
10
100
AcDbArc
50
286.601549599
51
343.398450401
0
ARC
5
18A
100
AcDbEntity
8
reverseplate-withoutholes
6
ByLayer
62
256
370
-1
100
AcDbCircle
10
90
20
66
40
10
100
AcDbArc
50
196.601549599
51
253.398450401
0
ARC
5
18B
100
AcDbEntity
8
reverseplate-withoutholes
6
ByLayer
62
256
370
-1
100
AcDbCircle
10
66
20
90
40
10
100
AcDbArc
50
286.601549599
51
73.398450401
0
ARC
5
18C
100
AcDbEntity
8
reverseplate-withoutholes
6
ByLayer
62
256
370
-1
100
AcDbCircle
10
66
20
114
40
10
100
AcDbArc
50
286.601549599
51
343.398450401
0
ARC
5
18D
100
AcDbEntity
8
reverseplate-withoutholes
6
ByLayer
62
256
370
-1
100
AcDbCircle
10
90
20
114
40
10
100
AcDbArc
50
196.601549599
51
343.398450401
0
ARC
5
18E
100
AcDbEntity
8
reverseplate-withoutholes
6
ByLayer
62
256
370
-1
100
AcDbCircle
10
90
20
114
40
10
100
AcDbArc
50
106.601549599
51
163.398450401
0
ARC
5
18F
100
AcDbEntity
8
reverseplate-withoutholes
6
ByLayer
62
256
370
-1
100
AcDbCircle
10
66
20
114
40
10
100
AcDbArc
50
16.601549599
51
253.398450401
0
ARC
5
190
100
AcDbEntity
8
reverseplate-withoutholes
6
ByLayer
62
256
370
-1
100
AcDbCircle
10
66
20
90
40
10
100
AcDbArc
50
106.601549599
51
163.398450401
0
ARC
5
191
100
AcDbEntity
8
reverseplate-withoutholes
6
ByLayer
62
256
370
-1
100
AcDbCircle
10
66
20
90
40
10
100
AcDbArc
50
196.601549599
51
253.398450401
0
ARC
5
192
100
AcDbEntity
8
reverseplate-withoutholes
6
ByLayer
62
256
370
-1
100
AcDbCircle
10
66
20
66
40
10
100
AcDbArc
50
106.601549599
51
343.398450401
0
ARC
5
193
100
AcDbEntity
8
reverseplate-withoutholes
6
ByLayer
62
256
370
-1
100
AcDbCircle
10
90
20
114
40
10
100
AcDbArc
50
16.601549599
51
73.398450401
0
ARC
5
194
100
AcDbEntity
8
reverseplate-withoutholes
6
ByLayer
62
256
370
-1
100
AcDbCircle
10
66
20
66
40
10
100
AcDbArc
50
16.601549599
51
73.398450401
0
ARC
5
195
100
AcDbEntity
8
reverseplate-withoutholes
6
ByLayer
62
256
370
-1
100
AcDbCircle
10
42
20
42
40
10
100
AcDbArc
50
16.601549599
51
73.398450401
0
ARC
5
196
100
AcDbEntity
8
reverseplate-withoutholes
6
ByLayer
62
256
370
-1
100
AcDbCircle
10
90
20
42
40
10
100
AcDbArc
50
106.601549599
51
163.398450401
0
ARC
5
197
100
AcDbEntity
8
reverseplate-withoutholes
6
ByLayer
62
256
370
-1
100
AcDbCircle
10
90
20
42
40
10
100
AcDbArc
50
16.601549599
51
73.398450401
0
ARC
5
198
100
AcDbEntity
8
reverseplate-withoutholes
6
ByLayer
62
256
370
-1
100
AcDbCircle
10
138
20
42
40
10
100
AcDbArc
50
106.601549599
51
163.398450401
0
ARC
5
199
100
AcDbEntity
8
reverseplate-withoutholes
6
ByLayer
62
256
370
-1
100
AcDbCircle
10
138
20
42
40
10
100
AcDbArc
50
196.601549599
51
73.398450401
0
ARC
5
19A
100
AcDbEntity
8
reverseplate-withoutholes
6
ByLayer
62
256
370
-1
100
AcDbCircle
10
90
20
42
40
10
100
AcDbArc
50
196.601549599
51
253.398450401
0
ARC
5
19B
100
AcDbEntity
8
reverseplate-withoutholes
6
ByLayer
62
256
370
-1
100
AcDbCircle
10
42
20
42
40
10
100
AcDbArc
50
106.601549599
51
343.398450401
0
ARC
5
19C
100
AcDbEntity
8
reverseplate-withoutholes
6
ByLayer
62
256
370
-1
100
AcDbCircle
10
18
20
18
40
10
100
AcDbArc
50
106.601549599
51
343.398450401
0
ARC
5
19D
100
AcDbEntity
8
reverseplate-withoutholes
6
ByLayer
62
256
370
-1
100
AcDbCircle
10
18
20
18
40
10
100
AcDbArc
50
16.601549599
51
73.398450401
0
ARC
5
19E
100
AcDbEntity
8
reverseplate-withoutholes
6
ByLayer
62
256
370
-1
100
AcDbCircle
10
90
20
18
40
10
100
AcDbArc
50
106.601549599
51
163.398450401
0
ARC
5
19F
100
AcDbEntity
8
reverseplate-withoutholes
6
ByLayer
62
256
370
-1
100
AcDbCircle
10
90
20
18
40
10
100
AcDbArc
50
16.601549599
51
73.398450401
0
ARC
5
1A0
100
AcDbEntity
8
reverseplate-withoutholes
6
ByLayer
62
256
370
-1
100
AcDbCircle
10
90
20
18
40
10
100
AcDbArc
50
196.601549599
51
343.398450401
0
ARC
5
1A1
100
AcDbEntity
8
reverseplate-withoutholes
6
ByLayer
62
256
370
-1
100
AcDbCircle
10
162
20
18
40
10
100
AcDbArc
50
106.601549599
51
163.398450401
0
ARC
5
1A2
100
AcDbEntity
8
reverseplate-withoutholes
6
ByLayer
62
256
370
-1
100
AcDbCircle
10
162
20
18
40
10
100
AcDbArc
50
196.601549599
51
73.398450401
0
LINE
5
1A3
100
AcDbEntity
8
reverseplate-withoutholes
6
ByLayer
62
256
370
-1
100
AcDbLine
10
27.583148475
20
164.857142857
11
80.416851525
21
164.857142857
0
LINE
5
1A4
100
AcDbEntity
8
reverseplate-withoutholes
6
ByLayer
62
256
370
-1
100
AcDbLine
10
27.583148475
20
159.142857143
11
80.416851525
21
159.142857143
0
LINE
5
1A5
100
AcDbEntity
8
reverseplate-withoutholes
6
ByLayer
62
256
370
-1
100
AcDbLine
10
99.583148475
20
164.857142857
11
152.416851525
21
164.857142857
0
LINE
5
1A6
100
AcDbEntity
8
reverseplate-withoutholes
6
ByLayer
62
256
370
-1
100
AcDbLine
10
164.857142857
20
152.416851525
11
164.857142857
21
99.583148475
0
LINE
5
1A7
100
AcDbEntity
8
reverseplate-withoutholes
6
ByLayer
62
256
370
-1
100
AcDbLine
10
164.857142857
20
80.416851525
11
164.857142857
21
27.583148475
0
LINE
5
1A8
100
AcDbEntity
8
reverseplate-withoutholes
6
ByLayer
62
256
370
-1
100
AcDbLine
10
152.416851525
20
15.1428571429
11
99.583148475
21
15.1428571429
0
LINE
5
1A9
100
AcDbEntity
8
reverseplate-withoutholes
6
ByLayer
62
256
370
-1
100
AcDbLine
10
80.416851525
20
15.1428571429
11
27.583148475
21
15.1428571429
0
LINE
5
1AA
100
AcDbEntity
8
reverseplate-withoutholes
6
ByLayer
62
256
370
-1
100
AcDbLine
10
15.1428571429
20
27.583148475
11
15.1428571429
21
80.416851525
0
LINE
5
1AB
100
AcDbEntity
8
reverseplate-withoutholes
6
ByLayer
62
256
370
-1
100
AcDbLine
10
15.1428571429
20
99.583148475
11
15.1428571429
21
152.416851525
0
LINE
5
1AC
100
AcDbEntity
8
reverseplate-withoutholes
6
ByLayer
62
256
370
-1
100
AcDbLine
10
20.8571428571
20
152.416851525
11
20.8571428571
21
99.583148475
0
LINE
5
1AD
100
AcDbEntity
8
reverseplate-withoutholes
6
ByLayer
62
256
370
-1
100
AcDbLine
10
20.8571428571
20
80.416851525
11
20.8571428571
21
27.583148475
0
LINE
5
1AE
100
AcDbEntity
8
reverseplate-withoutholes
6
ByLayer
62
256
370
-1
100
AcDbLine
10
27.583148475
20
20.8571428571
11
80.416851525
21
20.8571428571
0
LINE
5
1AF
100
AcDbEntity
8
reverseplate-withoutholes
6
ByLayer
62
256
370
-1
100
AcDbLine
10
99.583148475
20
20.8571428571
11
152.416851525
21
20.8571428571
0
LINE
5
1B0
100
AcDbEntity
8
reverseplate-withoutholes
6
ByLayer
62
256
370
-1
100
AcDbLine
10
159.142857143
20
27.583148475
11
159.142857143
21
80.416851525
0
LINE
5
1B1
100
AcDbEntity
8
reverseplate-withoutholes
6
ByLayer
62
256
370
-1
100
AcDbLine
10
159.142857143
20
99.583148475
11
159.142857143
21
152.416851525
0
LINE
5
1B2
100
AcDbEntity
8
reverseplate-withoutholes
6
ByLayer
62
256
370
-1
100
AcDbLine
10
152.416851525
20
159.142857143
11
99.583148475
21
159.142857143
0
LINE
5
1B3
100
AcDbEntity
8
reverseplate-withoutholes
6
ByLayer
62
256
370
-1
100
AcDbLine
10
92.8571428571
20
152.416851525
11
92.8571428571
21
147.583148475
0
LINE
5
1B4
100
AcDbEntity
8
reverseplate-withoutholes
6
ByLayer
62
256
370
-1
100
AcDbLine
10
99.583148475
20
140.857142857
11
128.416851525
21
140.857142857
0
LINE
5
1B5
100
AcDbEntity
8
reverseplate-withoutholes
6
ByLayer
62
256
370
-1
100
AcDbLine
10
99.583148475
20
135.142857143
11
128.416851525
21
135.142857143
0
LINE
5
1B6
100
AcDbEntity
8
reverseplate-withoutholes
6
ByLayer
62
256
370
-1
100
AcDbLine
10
135.142857143
20
128.416851525
11
135.142857143
21
99.583148475
0
LINE
5
1B7
100
AcDbEntity
8
reverseplate-withoutholes
6
ByLayer
62
256
370
-1
100
AcDbLine
10
140.857142857
20
128.416851525
11
140.857142857
21
99.583148475
0
LINE
5
1B8
100
AcDbEntity
8
reverseplate-withoutholes
6
ByLayer
62
256
370
-1
100
AcDbLine
10
51.583148475
20
140.857142857
11
80.416851525
21
140.857142857
0
LINE
5
1B9
100
AcDbEntity
8
reverseplate-withoutholes
6
ByLayer
62
256
370
-1
100
AcDbLine
10
87.1428571429
20
147.583148475
11
87.1428571429
21
152.416851525
0
LINE
5
1BA
100
AcDbEntity
8
reverseplate-withoutholes
6
ByLayer
62
256
370
-1
100
AcDbLine
10
51.583148475
20
135.142857143
11
80.416851525
21
135.142857143
0
LINE
5
1BB
100
AcDbEntity
8
reverseplate-withoutholes
6
ByLayer
62
256
370
-1
100
AcDbLine
10
87.1428571429
20
128.416851525
11
87.1428571429
21
123.583148475
0
LINE
5
1BC
100
AcDbEntity
8
reverseplate-withoutholes
6
ByLayer
62
256
370
-1
100
AcDbLine
10
92.8571428571
20
128.416851525
11
92.8571428571
21
123.583148475
0
LINE
5
1BD
100
AcDbEntity
8
reverseplate-withoutholes
6
ByLayer
62
256
370
-1
100
AcDbLine
10
75.583148475
20
116.857142857
11
80.416851525
21
116.857142857
0
LINE
5
1BE
100
AcDbEntity
8
reverseplate-withoutholes
6
ByLayer
62
256
370
-1
100
AcDbLine
10
80.416851525
20
111.142857143
11
75.583148475
21
111.142857143
0
LINE
5
1BF
100
AcDbEntity
8
reverseplate-withoutholes
6
ByLayer
62
256
370
-1
100
AcDbLine
10
68.8571428571
20
104.416851525
11
68.8571428571
21
99.583148475
0
LINE
5
1C0
100
AcDbEntity
8
reverseplate-withoutholes
6
ByLayer
62
256
370
-1
100
AcDbLine
10
63.1428571429
20
104.416851525
11
63.1428571429
21
99.583148475
0
LINE
5
1C1
100
AcDbEntity
8
reverseplate-withoutholes
6
ByLayer
62
256
370
-1
100
AcDbLine
10
63.1428571429
20
80.416851525
11
63.1428571429
21
75.583148475
0
LINE
5
1C2
100
AcDbEntity
8
reverseplate-withoutholes
6
ByLayer
62
256
370
-1
100
AcDbLine
10
68.8571428571
20
80.416851525
11
68.8571428571
21
75.583148475
0
LINE
5
1C3
100
AcDbEntity
8
reverseplate-withoutholes
6
ByLayer
62
256
370
-1
100
AcDbLine
10
51.583148475
20
92.8571428571
11
56.416851525
21
92.8571428571
0
LINE
5
1C4
100
AcDbEntity
8
reverseplate-withoutholes
6
ByLayer
62
256
370
-1
100
AcDbLine
10
51.583148475
20
87.1428571429
11
56.416851525
21
87.1428571429
0
LINE
5
1C5
100
AcDbEntity
8
reverseplate-withoutholes
6
ByLayer
62
256
370
-1
100
AcDbLine
10
44.8571428571
20
99.583148475
11
44.8571428571
21
128.416851525
0
LINE
5
1C6
100
AcDbEntity
8
reverseplate-withoutholes
6
ByLayer
62
256
370
-1
100
AcDbLine
10
39.1428571429
20
128.416851525
11
39.1428571429
21
99.583148475
0
LINE
5
1C7
100
AcDbEntity
8
reverseplate-withoutholes
6
ByLayer
62
256
370
-1
100
AcDbLine
10
39.1428571429
20
80.416851525
11
39.1428571429
21
51.583148475
0
LINE
5
1C8
100
AcDbEntity
8
reverseplate-withoutholes
6
ByLayer
62
256
370
-1
100
AcDbLine
10
44.8571428571
20
80.416851525
11
44.8571428571
21
51.583148475
0
LINE
5
1C9
100
AcDbEntity
8
reverseplate-withoutholes
6
ByLayer
62
256
370
-1
100
AcDbLine
10
27.583148475
20
92.8571428571
11
32.416851525
21
92.8571428571
0
LINE
5
1CA
100
AcDbEntity
8
reverseplate-withoutholes
6
ByLayer
62
256
370
-1
100
AcDbLine
10
27.583148475
20
87.1428571429
11
32.416851525
21
87.1428571429
0
LINE
5
1CB
100
AcDbEntity
8
reverseplate-withoutholes
6
ByLayer
62
256
370
-1
100
AcDbLine
10
51.583148475
20
44.8571428571
11
80.416851525
21
44.8571428571
0
LINE
5
1CC
100
AcDbEntity
8
reverseplate-withoutholes
6
ByLayer
62
256
370
-1
100
AcDbLine
10
75.583148475
20
68.8571428571
11
80.416851525
21
68.8571428571
0
LINE
5
1CD
100
AcDbEntity
8
reverseplate-withoutholes
6
ByLayer
62
256
370
-1
100
AcDbLine
10
75.583148475
20
63.1428571429
11
80.416851525
21
63.1428571429
0
LINE
5
1CE
100
AcDbEntity
8
reverseplate-withoutholes
6
ByLayer
62
256
370
-1
100
AcDbLine
10
99.583148475
20
68.8571428571
11
104.416851525
21
68.8571428571
0
LINE
5
1CF
100
AcDbEntity
8
reverseplate-withoutholes
6
ByLayer
62
256
370
-1
100
AcDbLine
10
99.583148475
20
63.1428571429
11
104.416851525
21
63.1428571429
0
LINE
5
1D0
100
AcDbEntity
8
reverseplate-withoutholes
6
ByLayer
62
256
370
-1
100
AcDbLine
10
111.142857143
20
80.416851525
11
111.142857143
21
75.583148475
0
LINE
5
1D1
100
AcDbEntity
8
reverseplate-withoutholes
6
ByLayer
62
256
370
-1
100
AcDbLine
10
116.857142857
20
75.583148475
11
116.857142857
21
80.416851525
0
LINE
5
1D2
100
AcDbEntity
8
reverseplate-withoutholes
6
ByLayer
62
256
370
-1
100
AcDbLine
10
111.142857143
20
104.416851525
11
111.142857143
21
99.583148475
0
LINE
5
1D3
100
AcDbEntity
8
reverseplate-withoutholes
6
ByLayer
62
256
370
-1
100
AcDbLine
10
116.857142857
20
99.583148475
11
116.857142857
21
104.416851525
0
LINE
5
1D4
100
AcDbEntity
8
reverseplate-withoutholes
6
ByLayer
62
256
370
-1
100
AcDbLine
10
99.583148475
20
116.857142857
11
104.416851525
21
116.857142857
0
LINE
5
1D5
100
AcDbEntity
8
reverseplate-withoutholes
6
ByLayer
62
256
370
-1
100
AcDbLine
10
99.583148475
20
111.142857143
11
104.416851525
21
111.142857143
0
LINE
5
1D6
100
AcDbEntity
8
reverseplate-withoutholes
6
ByLayer
62
256
370
-1
100
AcDbLine
10
123.583148475
20
92.8571428571
11
128.416851525
21
92.8571428571
0
LINE
5
1D7
100
AcDbEntity
8
reverseplate-withoutholes
6
ByLayer
62
256
370
-1
100
AcDbLine
10
123.583148475
20
87.1428571429
11
128.416851525
21
87.1428571429
0
ARC
5
1D8
100
AcDbEntity
8
reverseplate-withoutholes
6
ByLayer
62
256
370
-1
100
AcDbCircle
10
90
20
42
40
10
100
AcDbArc
50
286.601549599
51
343.398450401
0
ARC
5
1D9
100
AcDbEntity
8
reverseplate-withoutholes
6
ByLayer
62
256
370
-1
100
AcDbCircle
10
138
20
90
40
10
100
AcDbArc
50
286.601549599
51
343.398450401
0
LINE
5
1DA
100
AcDbEntity
8
reverseplate-withoutholes
6
ByLayer
62
256
370
-1
100
AcDbLine
10
51.583148475
20
39.1428571429
11
80.416851525
21
39.1428571429
0
LINE
5
1DB
100
AcDbEntity
8
reverseplate-withoutholes
6
ByLayer
62
256
370
-1
100
AcDbLine
10
87.1428571429
20
51.583148475
11
87.1428571429
21
56.416851525
0
LINE
5
1DC
100
AcDbEntity
8
reverseplate-withoutholes
6
ByLayer
62
256
370
-1
100
AcDbLine
10
92.8571428571
20
56.416851525
11
92.8571428571
21
51.583148475
0
LINE
5
1DD
100
AcDbEntity
8
reverseplate-withoutholes
6
ByLayer
62
256
370
-1
100
AcDbLine
10
92.8571428571
20
32.416851525
11
92.8571428571
21
27.583148475
0
LINE
5
1DE
100
AcDbEntity
8
reverseplate-withoutholes
6
ByLayer
62
256
370
-1
100
AcDbLine
10
87.1428571429
20
32.416851525
11
87.1428571429
21
27.583148475
0
LINE
5
1DF
100
AcDbEntity
8
reverseplate-withoutholes
6
ByLayer
62
256
370
-1
100
AcDbLine
10
99.583148475
20
44.8571428571
11
128.416851525
21
44.8571428571
0
LINE
5
1E0
100
AcDbEntity
8
reverseplate-withoutholes
6
ByLayer
62
256
370
-1
100
AcDbLine
10
99.583148475
20
39.1428571429
11
128.416851525
21
39.1428571429
0
LINE
5
1E1
100
AcDbEntity
8
reverseplate-withoutholes
6
ByLayer
62
256
370
-1
100
AcDbLine
10
135.142857143
20
51.583148475
11
135.142857143
21
80.416851525
0
LINE
5
1E2
100
AcDbEntity
8
reverseplate-withoutholes
6
ByLayer
62
256
370
-1
100
AcDbLine
10
140.857142857
20
80.416851525
11
140.857142857
21
51.583148475
0
LINE
5
1E3
100
AcDbEntity
8
reverseplate-withoutholes
6
ByLayer
62
256
370
-1
100
AcDbLine
10
147.583148475
20
87.1428571429
11
152.416851525
21
87.1428571429
0
LINE
5
1E4
100
AcDbEntity
8
reverseplate-withoutholes
6
ByLayer
62
256
370
-1
100
AcDbLine
10
147.583148475
20
92.8571428571
11
152.416851525
21
92.8571428571
0
MTEXT
5
1E5
100
AcDbEntity
8
0
6
ByLayer
62
256
370
-1
100
AcDbMText
10
2.1875
20
177.8125
30
0
40
6
41
177.000003086
71
1
72
1
1
Nine Men's Morris plate\Pplateau du jeu du moulin\PBy Gnieark https://blog-du-grouik.tinad.fr/\P avril 2015\P
7
standard
210
0
220
0
230
1
50
0
73
2
44
1
0
ENDSEC
0
SECTION
2
OBJECTS
0
DICTIONARY
5
C
330
0
100
AcDbDictionary
281
1
3
ACAD_GROUP
350
D
0
DICTIONARY
5
D
330
C
100
AcDbDictionary
281
1
0
ENDSEC
0
EOF
